<?xml version="1.0" encoding="UTF-8" standalone="no"?>
<!-- Created with Inkscape (http://www.inkscape.org/) -->

<svg
   xmlns:dc="http://purl.org/dc/elements/1.1/"
   xmlns:cc="http://creativecommons.org/ns#"
   xmlns:rdf="http://www.w3.org/1999/02/22-rdf-syntax-ns#"
   xmlns:svg="http://www.w3.org/2000/svg"
   xmlns="http://www.w3.org/2000/svg"
   xmlns:sodipodi="http://sodipodi.sourceforge.net/DTD/sodipodi-0.dtd"
   xmlns:inkscape="http://www.inkscape.org/namespaces/inkscape"
   width="400"
   height="400"
   viewBox="0 0 105.83333 105.83334"
   version="1.1"
   id="svg8"
   inkscape:version="0.92.2 2405546, 2018-03-11"
   sodipodi:docname="holes.svg">
  <defs
     id="defs2">
    <inkscape:path-effect
       effect="bspline"
       id="path-effect820"
       is_visible="true"
       weight="33.333333"
       steps="2"
       helper_size="0"
       apply_no_weight="true"
       apply_with_weight="true"
       only_selected="false" />
    <inkscape:path-effect
       effect="bspline"
       id="path-effect827"
       is_visible="true"
       weight="33.333333"
       steps="2"
       helper_size="0"
       apply_no_weight="true"
       apply_with_weight="true"
       only_selected="false" />
    <inkscape:path-effect
       effect="bspline"
       id="path-effect819"
       is_visible="true"
       weight="33.333333"
       steps="2"
       helper_size="0"
       apply_no_weight="true"
       apply_with_weight="true"
       only_selected="false" />
  </defs>
  <sodipodi:namedview
     id="base"
     pagecolor="#ffffff"
     bordercolor="#666666"
     borderopacity="1.0"
     inkscape:pageopacity="0.0"
     inkscape:pageshadow="2"
     inkscape:zoom="1.979899"
     inkscape:cx="154.65017"
     inkscape:cy="171.33657"
     inkscape:document-units="px"
     inkscape:current-layer="svg8"
     showgrid="false"
     inkscape:window-width="1920"
     inkscape:window-height="1029"
     inkscape:window-x="0"
     inkscape:window-y="0"
     inkscape:window-maximized="1"
     units="px" />
  <metadata
     id="metadata5">
    <rdf:RDF>
      <cc:Work
         rdf:about="">
        <dc:format>image/svg+xml</dc:format>
        <dc:type
           rdf:resource="http://purl.org/dc/dcmitype/StillImage" />
        <dc:title />
      </cc:Work>
    </rdf:RDF>
  </metadata>
  <path
     style="fill:#00ff00;fill-opacity:0.49803922;fill-rule:evenodd;stroke:#000000;stroke-width:0.26458332px;stroke-linecap:butt;stroke-linejoin:miter;stroke-opacity:1"
     d="m 54.198169,13.200945 c -18.400801,0.197 -37.634649,10.4553 -44.3874725,25.25685 -8.82001497,19.33264 3.6523245,46.41572 11.9377725,54.07733 7.820742,7.23188 11.908824,-2.84041 13.017294,-13.35837 -4.238631,-0.62407 -7.923271,-1.53323 -10.700639,-2.67787 -14.6998405,-6.05825 -4.009104,-18.70921 2.583304,-19.77812 6.592409,-1.06891 9.087046,9.44411 8.285282,20.58014 -0.04497,0.62458 -0.102085,1.25088 -0.167947,1.87585 18.195246,2.67896 46.614316,0.10214 57.452826,-11.67577 13.363361,-14.52161 -2e-5,-43.03045 -21.7377,-51.49401 -5.09476,-1.98365 -10.64982,-2.86634 -16.28272,-2.80603 z M 41.96222,34.179505 c 0.874469,-0.014 1.625419,0.19915 2.135269,0.68833 2.33075,2.23628 -0.37798,10.23706 5.07153,14.36347 0.14331,0.10851 0.2953,0.21308 0.44958,0.31625 5.54432,-2.04916 11.5215,-5.71678 16.40159,-6.11177 6.6144,-0.53535 11.21326,4.94545 6.70915,7.55975 -4.38567,2.54554 -17.39842,2.37217 -23.11074,-1.44798 -1.97037,0.72825 -3.88648,1.25379 -5.67872,1.35289 -6.835313,0.37798 -11.875007,-5.4172 -10.709425,-10.07897 0.910612,-3.642 5.608654,-6.59201 8.731766,-6.64197 z"
     id="path817"
     inkscape:connector-curvature="0" />
</svg>
