<?xml version="1.0" encoding="UTF-8" standalone="no"?>
<!DOCTYPE svg PUBLIC "-//W3C//DTD SVG 1.0//EN" "http://www.w3.org/TR/2001/REC-SVG-20010904/DTD/svg10.dtd">
<svg width="610px" height="410px" viewBox="0 0 610 410" version="1.0" xmlns="http://www.w3.org/2000/svg">

 <path d=" M 370.0 40.0 L 210.0 20.0 L 390.0 120.0 L 210.0 330.0 L 580.0 80.0 L 230.0 390.0 L 70.0 390.0 L 180.0 120.0 L 280.0 10.0 L 130.0 160.0 L 70.0 70.0 L 460.0 50.0 L 600.0 60.0 L 20.0 200.0 L 430.0 280.0 L 390.0 20.0 L 450.0 220.0 L 60.0 280.0 L 260.0 170.0 L 510.0 240.0 L 240.0 320.0 L 550.0 380.0 L 20.0 140.0 L 500.0 400.0 L 470.0 200.0 L 130.0 50.0 L 190.0 40.0 L 420.0 200.0 L 180.0 150.0 L 370.0 320.0 L 480.0 370.0 L 90.0 220.0 L 210.0 30.0 L 430.0 150.0 L 380.0 340.0 L 580.0 20.0 L 190.0 130.0 L 480.0 10.0 L 380.0 20.0 L 120.0 390.0 L 600.0 50.0 L 90.0 320.0 L 30.0 20.0 L 300.0 20.0 L 280.0 20.0 L 20.0 270.0 L 140.0 150.0 L 580.0 350.0 L 230.0 110.0 L 520.0 190.0 L 90.0 60.0 L 580.0 380.0 L 150.0 310.0 L 550.0 230.0 L 130.0 370.0 L 370.0 350.0 L 130.0 300.0 L 90.0 400.0 L 160.0 70.0 L 350.0 220.0 L 120.0 130.0 L 490.0 290.0 L 230.0 120.0 L 290.0 400.0 L 80.0 300.0 L 520.0 170.0 L 160.0 380.0 L 140.0 120.0 L 520.0 370.0 L 120.0 240.0 L 540.0 210.0 L 10.0 190.0 L 170.0 130.0 L 600.0 140.0 L 480.0 40.0 L 280.0 170.0 L 250.0 170.0 L 330.0 230.0 L 540.0 340.0 L 420.0 300.0 L 560.0 270.0 L 80.0 400.0 L 80.0 180.0 L 180.0 210.0 L 390.0 90.0 L 380.0 210.0 L 160.0 270.0 L 590.0 160.0 L 360.0 350.0 L 60.0 320.0 L 330.0 90.0 L 420.0 100.0 L 150.0 300.0 L 390.0 170.0 L 110.0 20.0 L 30.0 110.0 L 160.0 120.0 L 320.0 160.0 L 40.0 180.0 L 440.0 320.0 z" style="fill:#6666ac; fill-opacity:0.1; fill-rule:evenodd; stroke:#d0d0dd; stroke-opacity:0.8; stroke-width:0.8;"/>

 <path d=" M 500.0 330.0 L 410.0 360.0 L 250.0 230.0 L 430.0 250.0 L 500.0 160.0 L 250.0 400.0 L 490.0 60.0 L 560.0 90.0 L 420.0 200.0 L 500.0 250.0 L 130.0 40.0 L 450.0 330.0 L 140.0 230.0 L 340.0 100.0 L 70.0 60.0 L 90.0 140.0 L 430.0 220.0 L 60.0 80.0 L 600.0 90.0 L 340.0 220.0 L 420.0 270.0 L 20.0 50.0 L 180.0 20.0 L 350.0 390.0 L 340.0 100.0 L 550.0 330.0 L 300.0 400.0 L 230.0 160.0 L 480.0 370.0 L 90.0 370.0 L 70.0 130.0 L 160.0 210.0 L 280.0 160.0 L 290.0 300.0 L 250.0 330.0 L 520.0 230.0 L 70.0 220.0 L 280.0 320.0 L 390.0 310.0 L 350.0 20.0 L 350.0 20.0 L 290.0 160.0 L 570.0 290.0 L 270.0 220.0 L 80.0 140.0 L 550.0 90.0 L 30.0 400.0 L 420.0 390.0 L 590.0 390.0 L 50.0 240.0 L 320.0 60.0 L 280.0 290.0 L 420.0 70.0 L 560.0 240.0 L 360.0 30.0 L 350.0 370.0 L 290.0 20.0 L 370.0 150.0 L 220.0 50.0 L 130.0 210.0 L 80.0 330.0 L 450.0 220.0 L 460.0 230.0 L 260.0 350.0 L 140.0 190.0 L 150.0 290.0 L 410.0 180.0 L 350.0 150.0 L 320.0 310.0 L 410.0 370.0 L 440.0 390.0 L 320.0 130.0 L 560.0 350.0 L 110.0 40.0 L 460.0 140.0 L 300.0 210.0 L 100.0 80.0 L 340.0 290.0 L 300.0 180.0 L 60.0 260.0 L 270.0 30.0 L 140.0 140.0 L 400.0 110.0 L 40.0 60.0 L 290.0 300.0 L 290.0 80.0 L 170.0 20.0 L 130.0 40.0 L 520.0 130.0 L 60.0 340.0 L 590.0 90.0 L 580.0 360.0 L 200.0 10.0 L 310.0 130.0 L 260.0 330.0 L 540.0 110.0 L 410.0 160.0 L 470.0 90.0 L 180.0 330.0 L 320.0 80.0 z" style="fill:#666600; fill-opacity:0.1; fill-rule:evenodd; stroke:#dddd80; stroke-opacity:0.8; stroke-width:0.8;"/>

 <path d=" M 80.0 398.7 L 80.0 390.0 L 92.1 390.0 L 96.4 370.0 L 102.0 370.0 L 94.0 390.0 L 92.1 390.0 L 90.6 397.1 L 85.2 398.6 z M 90.3 398.4 L 90.6 397.1 L 91.2 397.0 L 94.0 390.0 L 116.9 390.0 L 120.7 389.0 L 134.1 370.0 L 148.2 370.0 L 121.9 388.6 L 120.7 389.0 L 120.0 390.0 L 116.9 390.0 L 91.2 397.0 L 90.6 398.4 z M 276.7 393.7 L 263.3 387.3 L 281.3 370.0 L 283.6 370.0 L 288.6 393.4 z M 481.5 390.0 L 444.6 370.0 L 480.0 370.0 L 474.5 365.4 L 495.4 369.4 L 498.5 390.0 z M 70.0 390.0 L 77.5 371.7 L 80.0 370.2 L 80.0 390.0 z M 120.0 390.0 L 121.9 388.6 L 159.9 378.4 L 159.2 370.0 L 177.1 370.0 L 165.3 376.9 L 159.9 378.4 L 160.0 380.0 L 165.3 376.9 L 190.8 370.0 L 227.0 370.0 L 243.6 377.9 L 230.0 390.0 z M 260.1 385.7 L 243.6 377.9 L 252.6 370.0 L 271.2 370.0 L 280.0 357.5 L 280.9 357.4 L 280.7 356.5 L 285.4 349.9 L 283.9 344.8 L 290.2 343.1 L 285.4 349.9 L 287.4 356.9 L 280.9 357.4 L 283.2 368.1 L 281.3 370.0 L 271.2 370.0 z M 550.0 380.0 L 495.4 369.4 L 494.9 366.1 L 470.7 362.2 L 461.8 354.7 L 462.4 354.5 L 461.2 354.2 L 454.8 348.8 L 467.8 353.0 L 462.4 354.5 L 494.5 363.5 L 494.9 366.1 L 517.2 369.8 L 543.6 377.1 z M 431.9 363.1 L 426.1 360.0 L 424.1 355.6 L 444.4 359.6 z M 98.7 359.1 L 106.0 324.6 L 100.1 324.0 L 106.5 322.1 L 106.0 324.6 L 119.6 326.0 L 108.8 353.0 z M 448.1 358.5 L 425.5 354.8 L 433.6 352.1 L 449.3 358.2 z M 452.2 357.4 L 437.7 350.8 L 442.7 349.1 L 420.3 342.9 L 417.7 341.7 L 415.0 335.9 L 449.1 347.0 L 442.7 349.1 L 461.2 354.2 L 461.8 354.7 z M 420.0 356.7 L 414.8 353.8 L 398.5 350.7 L 398.2 350.4 L 412.8 352.8 L 414.8 353.8 L 423.5 355.5 z M 295.6 356.2 L 307.6 344.8 L 330.3 347.0 L 333.0 353.1 z M 423.6 354.6 L 412.8 352.8 L 382.3 336.3 L 384.3 333.2 L 382.0 332.3 L 382.0 332.2 L 384.4 332.9 L 384.3 333.2 L 420.1 347.0 z M 346.9 351.9 L 346.3 348.6 L 348.6 348.9 L 348.7 351.8 z M 350.5 351.6 L 350.6 349.1 L 360.0 350.0 L 362.0 348.3 L 350.7 346.0 L 350.8 342.7 L 365.9 345.1 L 362.0 348.3 L 370.0 350.0 z M 580.0 350.0 L 558.6 340.3 L 548.0 330.6 L 550.0 330.0 L 548.6 328.5 z M 481.8 349.1 L 465.2 341.6 L 472.9 339.0 L 486.3 347.8 z M 374.9 346.6 L 365.9 345.1 L 366.6 344.5 L 350.8 341.4 L 351.1 330.8 L 347.9 328.6 L 347.8 327.5 L 351.3 326.5 L 351.1 330.8 L 368.9 342.6 L 366.6 344.5 L 373.9 345.9 z M 491.9 346.3 L 490.0 333.3 L 500.0 330.0 L 496.9 325.8 L 517.4 339.1 z M 88.0 345.9 L 86.5 328.1 L 96.4 325.1 z M 348.5 345.5 L 345.7 344.9 L 345.2 341.8 L 348.4 342.3 z M 290.2 343.0 L 283.8 342.4 L 293.2 334.0 L 288.4 333.0 L 289.0 332.6 L 293.9 333.4 L 293.2 334.0 L 296.1 334.6 z M 283.3 342.8 L 283.2 342.3 L 283.8 342.4 z M 274.3 341.4 L 251.9 339.2 L 246.0 331.3 L 257.5 327.5 L 257.0 327.4 L 258.6 326.8 L 259.2 326.9 L 257.5 327.5 L 260.5 328.0 L 260.0 330.0 L 262.2 328.3 L 275.1 330.4 L 277.1 339.8 z M 327.6 341.2 L 314.2 338.4 L 315.7 337.0 L 326.4 338.7 z M 348.3 341.0 L 344.9 340.3 L 342.9 328.8 L 346.7 327.8 L 347.9 328.6 z M 381.8 337.1 L 380.9 336.4 L 381.1 335.6 L 378.9 334.4 L 381.6 332.1 L 381.2 332.0 L 381.6 332.1 L 381.6 332.1 L 382.0 332.3 L 381.1 335.6 L 382.3 336.3 z M 325.4 336.5 L 319.0 335.3 L 324.2 333.9 z M 528.3 336.1 L 496.8 325.6 L 487.3 312.4 L 531.0 335.3 z M 316.8 335.9 L 317.7 335.0 L 319.0 335.3 z M 378.7 334.6 L 377.7 333.8 L 378.9 334.4 z M 296.7 333.9 L 293.9 333.4 L 296.6 331.0 L 292.9 330.2 L 303.9 323.7 L 308.3 317.4 L 312.4 317.1 L 307.0 321.8 L 303.9 323.7 L 302.2 326.1 L 296.6 331.0 L 298.5 331.3 z M 541.3 332.4 L 540.3 332.0 L 500.6 295.6 L 537.5 320.9 L 548.0 330.6 z M 279.9 331.2 L 278.1 330.9 L 275.1 330.4 L 275.1 330.2 L 262.9 327.7 L 266.3 325.1 L 274.3 326.6 L 275.1 330.2 L 278.1 330.9 L 279.9 331.1 z M 145.5 331.2 L 138.5 327.9 L 119.6 326.0 L 122.0 320.0 L 118.8 318.5 L 123.1 317.2 L 122.0 320.0 L 138.5 327.9 L 149.2 328.9 z M 80.0 330.9 L 80.0 330.6 L 83.3 329.0 L 85.5 328.4 L 86.5 327.9 L 86.5 327.5 L 95.0 323.5 L 95.9 323.6 L 86.5 327.9 L 86.5 328.1 L 85.5 328.4 z M 245.2 330.3 L 241.1 324.8 L 251.6 326.6 z M 80.0 330.0 L 83.2 322.3 L 86.0 322.6 L 86.5 327.5 L 83.3 329.0 z M 450.0 330.0 L 421.4 320.8 L 409.5 310.8 L 411.8 310.1 L 409.3 309.3 L 417.5 302.5 L 407.5 296.0 L 409.3 293.1 L 418.6 301.6 L 417.5 302.5 L 424.0 306.8 L 411.8 310.1 L 438.3 319.4 z M 367.4 328.2 L 356.5 325.1 L 360.0 324.2 L 358.0 323.1 L 351.4 320.6 L 351.5 319.6 L 358.0 323.1 L 360.5 324.0 L 360.0 324.2 z M 370.4 327.9 L 360.5 324.0 L 364.4 323.0 z M 278.9 327.5 L 274.3 326.6 L 273.3 322.2 L 277.0 321.0 z M 260.7 327.2 L 259.2 326.9 L 260.9 326.4 z M 254.1 326.9 L 251.6 326.6 L 253.2 325.7 L 239.6 322.8 L 233.2 314.3 L 247.6 304.6 L 264.4 312.6 L 264.3 312.8 L 240.0 320.0 L 257.2 323.3 L 253.2 325.7 L 255.2 326.1 z M 155.8 325.0 L 154.7 310.8 L 150.0 310.0 L 154.6 309.1 L 154.4 307.9 L 159.9 306.2 L 164.3 307.1 L 154.6 309.1 L 154.7 310.8 L 173.5 313.8 L 172.8 314.9 z M 264.3 324.7 L 261.5 324.1 L 262.3 320.8 L 265.0 318.8 L 270.6 315.5 L 272.1 316.2 L 272.8 319.9 L 268.9 323.0 z M 267.4 324.2 L 268.9 323.0 L 273.2 321.4 L 273.3 322.2 z M 258.6 323.6 L 257.2 323.3 L 262.4 320.2 L 262.3 320.8 z M 521.2 323.3 L 486.1 307.3 L 484.7 298.1 z M 97.3 323.0 L 97.6 322.3 L 107.5 317.6 L 107.3 318.4 z M 424.0 322.9 L 413.8 318.3 L 421.4 320.8 z M 280.0 320.0 L 306.4 311.2 L 311.6 312.7 L 308.3 317.4 z M 347.6 319.1 L 340.8 316.5 L 340.5 314.5 L 341.9 314.4 L 347.5 317.4 z M 195.3 317.4 L 187.8 316.1 L 189.8 312.5 L 198.9 314.4 z M 357.2 317.1 L 351.6 315.3 L 351.7 313.5 L 352.6 313.4 L 351.7 312.6 L 351.9 303.9 L 361.7 312.6 L 352.6 313.4 z M 113.1 315.8 L 112.3 315.4 L 126.6 308.6 L 126.1 309.8 z M 338.1 315.4 L 336.6 314.9 L 338.9 314.6 L 340.2 313.4 L 340.3 313.5 L 340.5 314.5 L 338.9 314.6 z M 402.7 314.7 L 399.1 313.6 L 401.7 312.9 L 398.0 311.2 L 401.0 306.4 L 389.9 302.5 L 391.6 295.8 L 399.6 302.5 L 401.2 306.0 L 401.0 306.4 L 401.5 306.5 L 404.1 312.2 L 401.7 312.9 L 403.8 313.8 z M 315.3 314.5 L 314.9 313.6 L 311.6 312.7 L 313.4 310.3 L 312.8 309.1 L 314.6 308.5 L 313.4 310.3 L 314.9 313.6 L 315.9 313.9 z M 405.1 314.4 L 403.8 313.8 L 404.6 313.2 z M 174.3 314.0 L 173.5 313.8 L 176.4 309.7 L 164.3 307.1 L 180.5 303.9 L 183.9 299.1 L 200.0 294.3 L 205.5 284.5 L 198.8 281.3 L 196.8 280.8 L 197.0 280.5 L 198.8 281.3 L 206.1 283.4 L 205.5 284.5 L 213.9 288.5 L 214.8 289.8 L 214.5 290.0 L 200.0 294.3 L 196.4 300.7 L 180.5 303.9 L 176.4 309.7 L 180.2 310.5 z M 347.4 313.9 L 347.3 313.9 L 347.4 313.9 L 347.2 309.0 L 345.9 307.9 L 347.1 306.8 L 346.9 299.3 L 351.0 303.0 L 347.1 306.8 L 347.2 309.0 L 351.7 312.6 L 351.7 313.5 L 347.4 313.9 z M 271.5 313.9 L 270.9 310.9 L 273.8 310.0 L 274.3 311.8 z M 274.7 313.1 L 274.3 311.8 L 278.6 308.6 L 286.4 306.2 L 287.1 305.9 L 287.4 305.9 L 286.4 306.2 z M 396.9 312.9 L 388.4 310.1 L 390.0 310.0 L 389.6 307.4 L 398.0 311.2 z M 264.7 312.7 L 264.4 312.6 L 267.4 300.4 L 257.8 297.7 L 266.8 291.6 L 265.9 287.7 L 265.0 287.3 L 265.2 287.2 L 264.8 287.1 L 265.6 286.9 L 265.7 286.8 L 263.3 275.5 L 263.7 275.4 L 263.4 274.4 L 263.0 274.1 L 262.4 271.3 L 261.0 270.5 L 261.9 269.4 L 262.3 270.8 L 262.4 271.3 L 262.5 271.3 L 263.4 274.4 L 264.2 275.2 L 263.7 275.4 L 266.8 286.0 L 265.7 286.8 L 265.8 286.9 L 265.6 286.9 L 265.2 287.2 L 265.9 287.4 L 265.9 287.7 L 267.4 288.2 L 268.1 290.7 L 266.8 291.6 L 268.1 297.7 L 267.4 300.4 L 268.7 300.8 L 270.9 310.9 z M 341.6 312.0 L 340.0 311.5 L 338.5 302.9 L 339.2 302.5 L 338.3 301.7 L 338.1 300.6 L 345.6 298.1 L 342.8 295.6 L 343.1 295.5 L 342.4 295.3 L 339.7 292.9 L 343.7 289.3 L 346.5 288.4 L 346.7 294.2 L 343.1 295.5 L 346.8 296.7 L 346.8 297.7 L 345.6 298.1 L 345.9 298.4 L 339.2 302.5 L 345.9 307.9 z M 486.7 311.6 L 482.5 305.7 L 486.1 307.3 z M 231.0 311.4 L 228.7 308.2 L 236.4 299.2 L 243.4 302.6 z M 325.6 310.6 L 321.4 309.0 L 324.4 306.4 L 322.5 305.8 L 324.8 305.1 L 321.7 303.4 L 332.1 299.6 L 326.6 304.5 L 324.8 305.1 L 325.4 305.4 L 324.4 306.4 L 329.7 308.2 z M 88.1 310.5 L 86.6 303.2 L 84.3 302.1 L 84.1 299.4 L 85.3 298.4 L 85.7 298.3 L 85.6 298.2 L 97.5 288.1 L 94.3 295.8 L 85.7 298.3 L 86.6 303.2 L 90.4 305.0 z M 387.8 310.2 L 387.9 310.0 L 388.4 310.1 z M 320.2 310.1 L 320.0 310.0 L 320.3 308.6 L 321.4 309.0 z M 408.5 309.9 L 406.5 308.3 L 409.3 309.3 z M 330.1 308.0 L 325.4 305.4 L 326.6 304.5 L 337.3 300.9 L 338.3 301.7 L 338.5 302.9 z M 425.6 307.9 L 424.0 306.8 L 424.3 306.7 z M 315.8 306.8 L 314.2 306.2 L 316.9 305.2 L 317.6 304.2 L 318.7 304.6 L 316.9 305.2 z M 320.7 306.4 L 320.9 305.3 L 322.5 305.8 z M 310.9 305.0 L 302.1 301.6 L 306.0 300.4 L 300.1 298.5 L 301.2 297.6 L 305.9 294.9 L 305.2 294.5 L 305.9 294.0 L 300.2 281.7 L 296.9 280.6 L 299.5 280.1 L 300.2 281.7 L 315.3 286.6 L 305.9 294.0 L 306.2 294.7 L 305.9 294.9 L 306.4 295.1 L 308.5 299.7 L 306.0 300.4 L 309.4 301.5 z M 389.3 304.8 L 388.9 302.1 L 389.9 302.5 z M 402.1 304.6 L 399.6 302.5 L 393.4 289.1 L 393.9 287.1 L 391.9 285.7 L 390.7 283.1 L 395.4 281.5 L 395.6 280.7 L 396.2 281.3 L 395.4 281.5 L 393.9 287.1 L 407.5 296.0 z M 292.5 304.4 L 298.1 300.1 L 302.1 301.6 z M 321.3 303.2 L 319.1 302.0 L 322.3 297.5 L 322.7 295.5 L 324.1 295.1 L 322.3 297.5 z M 142.1 302.5 L 140.3 302.1 L 153.5 295.9 L 153.6 297.3 z M 196.6 300.7 L 214.5 290.0 L 214.9 289.9 L 214.8 289.8 L 215.6 289.3 L 213.9 288.5 L 211.1 284.7 L 206.1 283.4 L 207.8 280.4 L 203.4 274.5 L 212.9 270.2 L 213.4 270.4 L 207.8 280.4 L 211.1 284.7 L 219.4 287.1 L 215.6 289.3 L 216.1 289.6 L 214.9 289.9 L 219.6 296.1 z M 84.1 298.8 L 82.9 284.3 L 85.6 298.2 L 85.3 298.4 z M 333.8 298.1 L 328.5 293.8 L 333.3 292.4 L 336.9 293.5 L 337.2 295.1 z M 347.5 297.5 L 348.1 297.1 L 346.8 296.7 L 346.7 294.2 L 352.3 292.1 L 352.3 290.5 L 354.3 291.4 L 352.3 292.1 L 352.2 294.7 L 348.1 297.1 L 348.4 297.2 z M 153.8 297.2 L 159.1 293.3 L 185.1 281.0 L 162.8 293.1 z M 290.0 296.9 L 289.8 296.8 L 289.6 295.1 L 290.0 295.3 z M 252.4 296.2 L 241.5 293.2 L 243.1 291.4 L 264.5 287.1 L 261.9 286.1 L 250.7 282.5 L 251.2 282.0 L 246.9 280.4 L 254.5 278.1 L 251.2 282.0 L 261.9 286.1 L 264.8 287.1 L 264.5 287.1 L 265.0 287.3 z M 352.2 295.9 L 352.2 294.7 L 356.2 292.3 L 359.2 293.6 z M 221.4 295.7 L 224.2 293.4 L 216.1 289.6 L 222.0 287.8 L 219.4 287.1 L 235.4 277.5 L 241.2 279.4 L 236.1 283.6 L 222.0 287.8 L 228.8 289.6 L 224.2 293.4 L 226.8 294.6 z M 284.6 294.9 L 270.2 289.3 L 270.7 289.0 L 270.3 288.8 L 271.1 285.8 L 274.5 285.1 L 275.3 285.9 L 270.7 289.0 L 282.5 292.8 z M 360.3 294.1 L 359.2 293.6 L 361.7 292.8 z M 338.4 294.0 L 336.9 293.5 L 336.5 291.4 L 337.7 291.1 L 336.3 289.8 L 335.6 286.2 L 332.4 283.3 L 332.9 282.5 L 335.1 283.3 L 335.6 286.2 L 340.0 290.0 L 337.9 284.3 L 340.9 285.3 L 345.7 287.5 L 343.7 289.3 L 337.7 291.1 L 339.7 292.9 z M 473.6 293.4 L 470.6 289.2 L 471.4 289.0 L 476.6 292.6 z M 361.8 292.6 L 357.9 291.3 L 363.2 288.1 L 368.7 286.0 L 372.2 282.7 L 374.4 281.3 L 374.0 281.0 L 375.0 280.0 L 378.3 279.0 L 374.4 281.3 L 376.6 283.1 L 368.7 286.0 z M 238.4 292.3 L 228.8 289.6 L 236.1 283.6 L 245.5 280.8 L 250.7 282.5 L 243.1 291.4 z M 356.2 290.7 L 352.4 289.3 L 352.4 286.7 L 373.4 280.5 L 374.0 281.0 L 372.2 282.7 L 363.2 288.1 z M 150.0 290.0 L 149.8 288.3 L 152.8 286.7 L 152.2 278.7 L 170.1 273.4 L 175.3 274.8 L 152.8 286.7 L 153.0 288.7 z M 270.2 289.4 L 270.2 289.3 L 270.2 289.3 z M 492.6 288.3 L 489.3 285.2 L 496.9 283.5 L 499.9 286.3 z M 267.3 287.9 L 265.9 287.4 L 265.8 286.9 L 266.9 286.6 z M 346.5 287.8 L 345.7 287.5 L 346.1 287.1 L 340.9 285.3 L 337.8 283.9 L 335.8 278.4 L 337.0 276.8 L 345.9 271.6 L 346.4 286.9 L 346.1 287.1 L 346.5 287.3 z M 318.5 287.6 L 315.3 286.6 L 317.5 284.8 L 309.3 278.1 L 316.4 276.7 L 300.8 271.3 L 299.0 269.8 L 302.1 267.8 L 297.1 265.5 L 306.1 262.8 L 307.5 264.1 L 302.1 267.8 L 320.2 275.9 L 316.4 276.7 L 324.3 279.5 L 317.5 284.8 L 319.9 286.8 z M 380.6 286.5 L 376.6 283.1 L 383.9 280.4 L 386.1 281.9 L 386.5 284.5 z M 290.0 286.3 L 289.0 285.7 L 288.7 282.3 L 290.0 282.0 z M 331.1 285.2 L 327.7 282.2 L 329.3 281.3 L 325.6 280.0 L 325.9 278.5 L 327.9 279.4 L 329.7 281.0 L 329.3 281.3 L 330.5 281.7 L 332.4 283.3 z M 508.1 284.1 L 505.8 281.6 L 520.5 278.5 L 525.0 279.5 z M 324.9 283.8 L 325.6 280.3 L 327.7 282.2 z M 281.1 283.8 L 281.4 281.7 L 281.5 281.7 L 281.5 281.6 L 282.4 275.9 L 281.5 275.6 L 282.6 274.8 L 282.4 275.9 L 287.6 277.6 L 281.5 281.7 L 284.3 283.1 z M 284.3 283.2 L 284.3 283.1 L 284.4 283.1 z M 335.0 282.6 L 333.4 281.9 L 334.6 280.1 L 334.3 278.3 L 335.5 277.6 L 335.8 278.4 L 334.6 280.1 z M 271.8 282.5 L 264.2 275.2 L 267.7 274.2 L 273.2 277.2 L 271.9 282.4 z M 352.6 281.4 L 353.0 269.4 L 358.9 268.2 L 363.3 271.9 z M 149.0 279.6 L 147.7 267.1 L 146.2 266.7 L 147.7 266.5 L 147.7 267.1 L 151.4 268.2 L 152.2 278.7 z M 324.5 279.3 L 321.3 276.4 L 320.2 275.9 L 320.7 275.9 L 307.5 264.1 L 309.1 263.0 L 323.3 275.4 L 320.7 275.9 L 321.3 276.4 L 325.7 278.4 z M 189.3 278.7 L 181.7 276.6 L 185.5 275.0 L 184.4 274.5 L 196.4 265.6 L 196.7 265.5 L 199.3 269.1 L 185.5 275.0 L 191.2 277.7 z M 242.2 278.5 L 237.1 276.6 L 253.7 266.7 L 234.3 260.4 L 238.7 258.4 L 253.8 266.6 L 253.7 266.7 L 254.1 266.8 L 255.5 267.5 z M 481.7 278.3 L 468.8 266.4 L 462.9 265.0 L 465.2 263.1 L 468.8 266.4 L 480.4 269.1 z M 462.7 278.2 L 452.3 273.7 L 456.8 270.0 z M 380.1 277.9 L 378.3 276.8 L 384.3 271.1 L 384.6 271.1 L 385.2 274.9 z M 288.1 277.2 L 288.4 276.9 L 287.9 271.1 L 290.0 269.6 L 290.0 274.3 L 288.4 276.9 L 288.4 277.1 z M 385.4 276.9 L 385.2 274.9 L 386.5 274.1 L 385.2 271.3 L 385.2 271.3 L 385.2 271.3 L 385.2 271.3 L 387.6 273.4 L 386.5 274.1 L 387.5 276.3 z M 181.5 276.7 L 181.6 276.6 L 181.7 276.6 z M 82.2 276.6 L 81.5 268.2 L 105.0 255.3 L 110.5 256.8 L 103.6 273.3 z M 200.1 276.1 L 202.2 273.0 L 203.4 274.5 z M 290.0 275.9 L 290.0 274.3 L 293.5 268.7 L 294.4 269.1 L 295.8 272.0 z M 539.1 275.7 L 537.4 274.9 L 560.0 270.0 z M 389.9 275.6 L 387.6 273.4 L 389.8 272.1 L 396.8 273.5 z M 396.9 275.6 L 397.5 273.6 L 396.8 273.5 L 397.6 273.3 L 399.0 267.7 L 397.9 267.2 L 399.4 266.4 L 399.0 267.7 L 405.9 270.9 L 397.6 273.3 L 397.5 273.6 L 400.5 274.3 z M 450.9 274.9 L 444.1 270.1 L 452.3 273.7 z M 326.6 274.7 L 329.3 260.5 L 329.2 260.3 L 329.3 260.4 L 329.3 260.5 L 333.0 270.7 L 333.3 272.4 L 331.7 273.7 z M 333.4 273.3 L 333.3 272.4 L 333.5 272.2 L 333.0 270.7 L 331.3 260.7 L 344.8 263.4 L 333.5 272.2 L 333.9 273.2 z M 202.3 272.9 L 203.7 270.9 L 208.0 268.6 L 205.8 267.9 L 207.3 265.8 L 208.1 265.4 L 211.4 266.7 L 208.0 268.6 L 210.0 269.3 z M 180.0 272.4 L 177.5 271.2 L 188.1 268.1 L 195.0 264.4 L 189.3 262.5 L 193.6 261.4 L 195.6 264.1 L 195.0 264.4 L 196.0 264.7 L 196.6 265.5 L 196.4 265.6 L 188.1 268.1 z M 201.6 272.1 L 199.3 269.1 L 203.8 267.2 L 205.8 267.9 L 203.7 270.9 z M 340.4 271.9 L 345.7 264.5 L 345.6 263.5 L 346.2 263.7 L 345.7 264.5 L 345.9 270.8 z M 407.6 271.6 L 405.9 270.9 L 407.2 270.4 L 399.4 266.4 L 402.8 264.3 L 410.7 269.4 L 407.2 270.4 L 408.7 271.2 z M 260.2 271.4 L 257.1 268.4 L 261.0 270.5 z M 411.7 270.1 L 410.7 269.4 L 416.1 267.8 L 416.8 268.2 z M 420.0 270.0 L 416.8 268.2 L 417.0 268.1 L 416.4 267.7 L 425.0 265.2 L 417.0 268.1 z M 262.0 269.4 L 262.0 269.4 L 262.0 269.3 L 260.7 263.2 L 263.9 260.5 L 266.2 259.2 L 269.7 260.4 L 262.0 269.3 z M 216.4 268.6 L 214.7 268.0 L 215.5 266.7 L 231.0 259.4 L 227.3 258.1 L 232.7 255.2 L 232.5 255.1 L 233.7 254.6 L 234.0 254.5 L 234.3 254.3 L 238.6 252.5 L 240.3 252.3 L 240.6 252.6 L 234.0 254.5 L 232.7 255.2 L 236.0 257.0 L 231.0 259.4 L 234.3 260.4 z M 480.2 268.1 L 470.3 258.9 L 475.0 255.0 L 478.1 254.0 L 477.9 252.6 L 478.7 251.9 L 480.0 253.3 L 478.1 254.0 z M 213.6 267.5 L 211.4 266.7 L 217.2 263.6 L 215.5 266.7 z M 290.1 267.5 L 290.0 267.5 L 290.0 262.5 L 289.3 262.0 L 290.0 262.3 L 290.0 262.5 L 292.3 264.3 L 293.3 266.6 z M 169.8 267.5 L 169.5 267.4 L 188.4 262.2 L 184.3 260.9 L 192.2 259.7 L 193.2 260.9 L 188.4 262.2 L 189.3 262.5 z M 353.0 267.4 L 353.1 265.0 L 355.6 265.5 L 355.9 265.7 z M 293.5 267.1 L 293.3 266.6 L 294.6 266.2 L 292.3 264.3 L 291.6 263.0 L 295.9 264.9 L 295.4 265.7 L 294.9 266.1 L 294.6 266.2 L 294.7 266.3 z M 439.4 266.9 L 433.3 262.7 L 442.0 260.1 L 445.6 261.0 L 449.5 263.5 z M 454.5 266.8 L 449.5 263.5 L 451.6 262.8 z M 287.6 266.7 L 284.3 265.5 L 285.2 260.1 L 287.2 261.0 z M 426.2 264.8 L 425.5 262.1 L 414.4 257.3 L 415.0 257.0 L 422.3 255.5 L 423.2 255.7 L 424.1 256.4 L 425.5 262.1 L 427.4 262.9 L 427.5 263.9 L 427.3 264.3 z M 377.7 264.5 L 374.7 261.8 L 378.6 258.4 L 372.9 255.8 L 375.9 254.1 L 364.4 248.0 L 369.6 243.9 L 370.9 243.5 L 370.2 243.4 L 370.3 243.4 L 370.0 243.3 L 361.9 241.4 L 363.6 239.0 L 355.5 234.5 L 356.9 234.3 L 354.2 232.6 L 355.4 231.8 L 354.1 231.2 L 354.1 228.8 L 350.6 226.6 L 351.2 226.3 L 354.2 226.3 L 354.1 228.8 L 357.0 230.7 L 355.4 231.8 L 360.1 233.8 L 356.9 234.3 L 363.8 238.8 L 363.6 239.0 L 366.5 240.6 L 370.5 243.2 L 370.3 243.4 L 370.9 243.4 L 371.0 243.5 L 370.9 243.5 L 371.1 243.6 L 373.0 244.8 L 377.0 253.4 L 375.9 254.1 L 377.7 255.0 L 379.1 258.0 L 378.6 258.4 L 379.5 258.9 L 381.7 263.7 z M 391.4 264.3 L 387.5 262.5 L 390.8 261.8 L 382.8 257.6 L 382.4 255.0 L 385.0 252.7 L 381.8 250.6 L 383.2 249.8 L 386.4 251.5 L 385.0 252.7 L 396.0 259.8 L 394.7 261.1 L 390.8 261.8 L 392.8 262.9 z M 427.6 264.2 L 427.5 263.9 L 428.0 263.2 L 427.4 262.9 L 426.6 258.1 L 429.8 260.3 L 428.0 263.2 L 429.1 263.7 z M 162.8 264.2 L 150.7 258.4 L 150.0 249.7 L 145.8 248.4 L 145.7 247.0 L 149.5 243.7 L 149.4 242.9 L 145.1 241.2 L 144.8 238.2 L 149.1 237.9 L 148.7 232.8 L 158.6 236.0 L 157.0 237.4 L 149.1 237.9 L 149.4 242.9 L 150.2 243.2 L 149.5 243.7 L 150.0 249.7 L 184.3 260.9 z M 383.6 263.3 L 383.2 260.5 L 387.5 262.5 z M 276.8 262.9 L 269.7 260.4 L 274.2 255.1 L 273.5 254.8 L 275.4 253.7 L 274.2 255.1 L 278.3 256.9 z M 452.5 262.6 L 452.4 262.6 L 452.4 262.5 L 450.4 261.1 L 448.4 258.3 L 457.1 255.7 L 461.3 259.6 L 452.4 262.5 z M 260.6 262.6 L 259.3 256.8 L 258.1 256.3 L 256.4 250.4 L 257.8 249.7 L 259.3 256.8 L 265.8 259.0 L 263.9 260.5 z M 128.4 261.8 L 122.9 260.2 L 128.0 247.6 L 138.9 252.8 z M 312.1 261.0 L 316.7 257.9 L 308.7 256.3 L 323.9 245.6 L 326.0 251.6 L 316.7 257.9 L 320.2 258.6 z M 353.2 260.3 L 350.8 258.7 L 353.3 256.7 L 353.4 253.5 L 356.9 248.6 L 361.1 250.5 L 353.3 256.7 z M 401.3 259.7 L 401.1 259.6 L 401.5 258.4 L 403.0 259.4 z M 119.8 259.4 L 110.5 256.8 L 113.0 250.9 L 122.8 245.5 L 122.8 245.2 L 123.1 245.3 L 122.8 245.5 z M 191.9 259.2 L 150.2 243.2 L 157.0 237.4 L 161.8 237.0 L 179.6 242.8 z M 304.7 259.1 L 301.5 256.3 L 302.2 255.1 L 308.7 256.3 z M 442.3 258.8 L 434.1 253.4 L 434.3 253.1 L 437.7 252.4 L 435.6 251.0 L 439.1 245.4 L 443.4 251.3 L 437.7 252.4 L 445.3 257.7 z M 220.0 258.6 L 221.3 256.2 L 219.1 255.5 L 221.9 255.1 L 221.3 256.2 L 224.6 257.3 z M 350.1 258.2 L 345.4 255.1 L 345.2 251.2 L 353.6 248.7 L 353.6 247.1 L 355.7 248.0 L 353.6 248.7 L 353.4 253.5 z M 300.5 257.8 L 296.1 253.9 L 290.0 252.7 L 290.0 248.4 L 296.1 253.9 L 299.5 254.5 L 301.5 256.3 z M 431.4 257.7 L 426.4 256.5 L 426.1 254.8 L 433.8 253.2 L 428.6 249.8 L 430.0 250.0 L 431.4 248.1 L 435.6 251.0 L 434.3 253.1 L 433.8 253.2 L 434.1 253.4 z M 370.0 257.5 L 363.5 251.6 L 372.9 255.8 z M 468.4 257.2 L 464.4 253.5 L 476.8 249.8 L 477.6 250.7 L 477.9 252.6 L 475.0 255.0 z M 424.0 255.9 L 423.2 255.7 L 422.8 255.4 L 423.8 255.2 L 423.0 252.2 L 425.5 250.7 L 426.1 254.8 L 423.8 255.2 z M 218.0 255.2 L 216.3 254.6 L 223.3 252.8 L 222.6 254.0 z M 76.9 254.4 L 75.4 247.1 L 79.9 248.3 L 80.0 250.0 L 80.0 253.3 z M 215.3 254.3 L 214.6 254.1 L 216.1 253.2 L 219.3 248.6 L 219.9 248.3 L 219.7 248.2 L 222.7 243.9 L 195.9 234.6 L 196.9 234.5 L 194.3 234.0 L 192.2 233.3 L 173.6 223.2 L 174.7 222.3 L 203.2 223.0 L 215.6 228.6 L 220.1 232.8 L 196.9 234.5 L 225.4 240.1 L 222.7 243.9 L 224.7 244.7 L 219.9 248.3 L 222.7 249.8 L 216.1 253.2 z M 271.8 254.0 L 260.9 249.1 L 266.9 248.2 L 262.9 247.4 L 268.3 244.9 L 267.9 244.5 L 271.7 243.4 L 268.3 244.9 L 271.5 247.5 L 266.9 248.2 L 274.1 249.6 L 275.6 250.8 z M 212.8 253.5 L 179.6 242.8 L 174.6 236.1 L 194.8 234.7 L 193.1 233.8 L 169.4 229.1 L 168.3 227.7 L 170.7 225.7 L 166.8 224.4 L 172.4 222.5 L 173.6 223.2 L 170.7 225.7 L 192.2 233.3 L 193.1 233.8 L 194.3 234.0 L 195.9 234.6 L 194.8 234.7 L 219.7 248.2 L 219.3 248.6 z M 249.7 253.4 L 246.2 252.2 L 248.8 251.0 L 256.2 249.8 L 256.4 250.4 z M 402.8 253.3 L 403.1 252.4 L 396.2 249.5 L 403.4 251.1 L 403.1 252.4 L 403.5 252.6 z M 341.2 252.3 L 335.5 248.6 L 333.3 246.7 L 341.1 241.4 L 337.4 239.7 L 342.8 240.3 L 341.1 241.4 L 344.9 243.2 L 345.2 251.2 z M 286.6 252.0 L 286.6 251.9 L 286.2 247.3 L 287.6 246.4 L 287.6 246.3 L 287.7 246.4 L 287.6 246.4 L 286.6 252.0 z M 286.6 252.0 L 280.3 250.8 L 284.8 248.1 L 283.6 245.6 L 286.1 245.2 L 286.2 247.3 L 284.8 248.1 L 286.6 251.9 z M 276.9 251.9 L 275.6 250.8 L 276.6 250.1 L 278.2 250.4 z M 239.5 251.5 L 238.0 250.1 L 239.2 249.7 L 237.1 249.0 L 251.2 245.1 L 236.8 242.3 L 241.0 240.1 L 234.7 237.2 L 242.8 231.2 L 250.6 230.7 L 251.7 234.4 L 241.0 240.1 L 251.7 244.9 L 251.4 245.1 L 251.2 245.1 L 251.3 245.1 L 246.0 248.0 L 239.2 249.7 L 241.4 250.5 z M 486.4 251.2 L 482.1 249.2 L 483.7 247.8 L 491.9 245.4 L 496.3 247.9 z M 242.5 250.9 L 241.4 250.5 L 246.0 248.0 L 254.0 246.0 L 252.8 245.4 L 251.3 245.1 L 251.4 245.1 L 251.8 245.0 L 251.7 244.9 L 254.3 243.5 L 254.6 244.2 L 251.8 245.0 L 252.8 245.4 L 254.6 245.8 L 254.3 245.9 L 254.0 246.0 L 254.0 246.0 z M 224.4 250.7 L 222.7 249.8 L 225.9 248.1 z M 279.8 250.7 L 278.2 250.4 L 280.6 247.7 z M 381.8 250.6 L 381.8 250.6 L 381.8 250.6 z M 388.0 250.0 L 385.5 248.4 L 387.4 247.4 L 390.3 248.1 z M 450.8 249.8 L 441.6 241.5 L 442.0 240.8 L 447.2 237.7 L 445.1 235.8 L 447.0 232.9 L 451.6 235.0 L 447.2 237.7 L 458.7 248.3 z M 258.2 249.5 L 260.0 248.7 L 260.9 249.1 z M 425.3 249.5 L 422.3 249.1 L 421.3 245.1 L 415.4 241.2 L 417.9 238.8 L 420.1 240.3 L 421.3 245.1 L 425.0 247.5 z M 329.3 249.4 L 328.4 243.9 L 331.9 246.3 L 331.7 247.8 z M 427.8 249.3 L 425.0 247.5 L 424.4 243.3 L 420.1 240.3 L 419.4 237.4 L 422.9 234.0 L 424.4 243.3 L 430.7 247.6 z M 236.9 249.0 L 236.7 248.8 L 237.1 249.0 z M 253.4 248.8 L 255.6 247.7 L 255.2 246.5 L 256.7 247.2 L 255.6 247.7 L 255.7 248.1 z M 480.9 248.6 L 477.0 246.8 L 476.9 246.0 L 484.8 243.0 L 487.0 242.6 L 488.8 243.6 L 483.7 247.8 z M 80.0 248.3 L 79.9 248.3 L 79.1 239.1 L 80.0 238.1 z M 496.5 247.8 L 492.4 245.2 L 510.0 240.0 L 505.8 238.8 L 550.0 230.0 z M 404.4 247.2 L 392.7 245.9 L 398.1 241.1 L 400.2 239.9 L 405.4 243.5 z M 257.2 247.0 L 257.1 246.3 L 255.0 245.9 L 255.0 245.7 L 256.8 245.2 L 256.8 244.8 L 264.3 241.6 L 264.2 241.6 L 264.9 241.4 L 264.3 241.6 L 265.9 242.9 L 265.8 242.9 L 256.8 245.2 L 257.1 246.3 L 258.3 246.5 z M 361.3 246.4 L 359.2 245.3 L 361.3 242.4 L 353.8 241.5 L 353.8 239.6 L 348.9 238.4 L 347.5 237.1 L 350.0 235.4 L 354.0 234.8 L 353.8 239.6 L 361.9 241.4 L 361.3 242.4 L 370.0 243.3 L 370.2 243.4 L 369.6 243.9 z M 281.0 246.0 L 282.0 242.0 L 281.4 240.8 L 282.1 241.4 L 282.0 242.0 L 283.2 244.6 L 281.6 245.9 z M 390.4 245.6 L 386.3 245.1 L 380.7 242.8 L 380.4 240.7 L 395.0 236.3 L 386.6 230.5 L 387.8 229.6 L 395.7 228.3 L 393.9 227.2 L 401.1 227.4 L 401.3 227.5 L 395.7 228.3 L 403.9 233.7 L 395.0 236.3 L 399.8 239.6 L 398.1 241.1 z M 227.3 245.6 L 224.7 244.7 L 229.0 241.5 L 229.4 241.8 z M 472.8 245.4 L 471.9 244.4 L 451.6 235.0 L 459.2 230.5 L 457.4 228.6 L 449.7 228.4 L 452.6 223.9 L 450.7 223.4 L 451.4 222.4 L 448.1 220.6 L 449.7 220.1 L 449.6 220.1 L 450.0 220.0 L 449.5 218.5 L 452.9 220.6 L 451.9 221.9 L 453.1 223.1 L 452.9 223.3 L 452.2 222.8 L 451.6 222.2 L 451.9 221.9 L 450.0 220.0 L 449.7 220.1 L 451.6 222.2 L 451.4 222.4 L 452.2 222.8 L 452.8 223.5 L 452.6 223.9 L 453.3 224.1 L 457.4 228.6 L 458.6 228.6 L 460.0 230.0 L 459.2 230.5 L 471.9 244.4 L 473.7 245.3 z M 287.8 244.9 L 287.9 244.4 L 285.9 242.7 L 285.9 242.4 L 288.7 240.1 L 289.0 238.3 L 290.0 237.9 L 290.0 239.0 L 288.7 240.1 L 287.9 244.4 L 288.4 244.9 z M 286.1 244.9 L 284.5 243.5 L 285.7 242.5 L 285.3 242.1 L 285.8 241.5 L 285.9 242.4 L 285.7 242.5 L 285.9 242.7 z M 232.3 244.6 L 229.4 241.8 L 229.9 240.9 L 236.8 242.3 z M 290.0 244.6 L 290.0 239.0 L 291.9 237.4 L 298.6 235.4 L 304.9 236.1 L 290.9 244.5 z M 283.2 244.6 L 283.2 244.6 L 283.2 244.6 z M 74.8 243.8 L 71.2 225.9 L 75.8 222.8 L 71.3 220.6 L 72.0 220.0 L 77.5 220.2 L 77.6 221.6 L 75.8 222.8 L 77.8 223.7 L 79.1 239.1 z M 489.2 243.3 L 487.9 242.4 L 491.0 241.8 L 493.3 239.9 L 500.3 237.3 L 505.8 238.8 L 491.0 241.8 z M 265.9 242.9 L 265.9 242.9 L 274.7 238.7 L 278.1 237.8 L 277.6 237.3 L 279.1 236.7 L 278.1 235.8 L 279.0 235.4 L 277.9 233.1 L 274.6 232.7 L 274.4 232.6 L 277.0 231.2 L 277.9 233.1 L 283.1 233.7 L 279.0 235.4 L 279.5 236.5 L 279.1 236.7 L 279.8 237.3 L 278.1 237.8 L 279.9 239.3 z M 328.1 242.6 L 328.1 242.4 L 324.4 239.3 L 327.5 238.8 L 328.1 242.4 L 328.2 242.5 z M 353.8 242.4 L 352.9 242.0 L 352.2 241.3 L 351.5 241.3 L 345.8 238.3 L 346.4 237.8 L 348.9 238.4 L 352.2 241.3 L 353.8 241.5 z M 377.8 241.5 L 374.5 240.1 L 379.8 235.9 L 379.1 230.9 L 385.7 229.9 L 386.6 230.5 L 379.8 235.9 L 380.4 240.7 z M 310.9 241.4 L 313.7 237.1 L 304.9 236.1 L 311.0 232.5 L 314.9 235.1 L 313.7 237.1 L 318.8 237.7 L 321.6 239.5 L 321.7 239.7 z M 230.0 240.8 L 232.5 236.2 L 234.7 237.2 z M 228.1 240.6 L 225.4 240.1 L 226.3 238.8 z M 281.3 240.5 L 280.7 239.2 L 281.3 239.0 L 281.6 238.9 L 282.6 239.7 L 282.4 240.2 z M 50.9 240.3 L 50.0 240.0 L 53.9 237.4 z M 282.9 240.1 L 282.6 239.7 L 282.9 238.6 L 285.6 237.9 L 285.7 239.2 z M 280.1 239.5 L 279.9 239.3 L 280.7 239.1 L 280.7 239.2 z M 261.7 239.5 L 254.3 233.5 L 254.2 233.1 L 258.3 230.9 L 272.2 232.5 L 273.1 233.3 z M 332.9 239.2 L 328.4 238.7 L 333.4 237.9 L 326.9 234.9 L 326.6 233.2 L 319.3 231.5 L 318.6 231.2 L 318.2 230.0 L 318.5 229.5 L 320.5 228.9 L 325.6 227.6 L 326.6 233.2 L 334.1 234.9 L 333.5 237.9 L 333.4 237.9 L 333.5 238.0 L 333.3 238.9 z M 344.8 238.9 L 344.8 237.7 L 345.8 238.3 z M 124.2 238.6 L 125.3 233.6 L 120.9 231.9 L 125.3 221.2 L 96.0 220.6 L 100.5 215.7 L 125.6 220.6 L 125.3 221.2 L 127.9 221.3 L 125.3 233.6 L 131.8 236.1 z M 369.9 238.1 L 366.7 236.7 L 365.7 236.1 L 367.7 233.3 L 367.4 232.7 L 368.2 232.6 L 367.7 233.3 z M 289.1 237.7 L 289.2 236.9 L 289.9 236.8 L 290.0 236.7 L 290.0 236.7 L 289.9 236.8 z M 279.9 237.3 L 279.5 236.5 L 283.9 234.4 L 284.1 233.8 L 283.1 233.7 L 284.2 233.2 L 285.0 230.0 L 284.9 228.2 L 285.4 228.2 L 285.0 230.0 L 285.2 232.8 L 284.2 233.2 L 284.1 233.8 L 285.0 233.9 L 283.9 234.4 L 283.4 236.3 z M 343.8 237.2 L 341.5 236.7 L 342.5 236.5 L 339.1 234.8 L 342.4 232.5 L 344.6 234.5 L 344.7 236.2 L 342.5 236.5 z M 276.6 236.4 L 273.1 233.3 L 274.3 232.7 L 274.6 232.7 L 278.1 235.8 z M 365.6 236.2 L 360.1 233.8 L 361.7 233.6 L 365.7 236.1 z M 475.4 236.0 L 462.5 228.7 L 458.6 228.6 L 454.4 224.4 L 455.5 224.7 L 462.5 228.7 L 466.1 228.8 L 475.2 234.5 z M 346.2 236.0 L 344.6 234.5 L 344.5 231.0 L 346.5 229.6 L 353.2 233.3 L 350.0 235.4 z M 285.4 235.8 L 285.3 233.9 L 285.0 233.9 L 285.3 233.7 L 285.2 232.8 L 290.0 230.8 L 290.0 227.9 L 290.8 227.8 L 290.3 230.6 L 290.0 230.8 L 290.0 231.5 L 285.3 233.7 L 285.3 233.9 L 289.7 234.4 L 289.6 234.7 z M 337.7 235.8 L 334.1 234.9 L 334.6 232.4 L 339.1 234.8 z M 293.9 235.8 L 294.8 235.0 L 291.7 234.6 L 292.4 233.9 L 292.5 233.9 L 298.0 232.4 L 294.8 235.0 L 296.3 235.1 z M 132.9 235.7 L 138.0 223.0 L 129.3 221.3 L 138.6 221.5 L 138.0 223.0 L 143.4 224.1 L 143.8 227.6 L 140.0 230.0 L 144.1 231.3 L 144.2 231.9 z M 290.0 234.6 L 290.0 234.4 L 289.7 234.4 L 290.0 232.5 L 290.0 231.5 L 290.2 231.4 L 290.3 230.6 L 297.9 227.4 L 297.4 228.0 L 290.2 231.4 L 290.0 232.5 L 290.0 234.4 L 290.3 234.5 z M 144.4 233.6 L 144.2 231.9 L 145.1 231.6 L 144.1 231.3 L 143.8 227.6 L 147.8 224.9 L 148.1 225.0 L 148.5 230.5 L 145.1 231.6 L 146.9 232.2 z M 253.9 233.2 L 250.8 230.7 L 253.7 230.4 L 253.7 230.4 L 253.9 230.4 L 253.7 230.4 L 254.2 233.1 z M 354.0 232.7 L 354.1 232.4 L 354.2 232.6 z M 407.8 232.6 L 408.2 232.2 L 401.3 227.5 L 402.0 227.4 L 409.6 227.6 L 408.4 232.0 L 408.2 232.2 L 408.3 232.3 L 408.3 232.4 z M 408.4 232.4 L 408.3 232.3 L 408.4 232.0 L 413.3 227.6 L 416.9 227.7 L 417.4 229.7 z M 235.0 231.8 L 239.5 223.8 L 236.8 223.7 L 245.1 211.9 L 245.5 213.1 L 239.5 223.8 L 248.7 224.0 L 249.4 226.4 L 242.8 231.2 z M 313.4 231.0 L 314.1 230.6 L 314.0 230.6 L 314.3 230.5 L 314.1 230.6 L 314.3 230.8 z M 317.7 230.8 L 316.4 230.2 L 318.1 229.7 L 318.2 230.0 z M 315.1 230.5 L 314.7 230.4 L 316.1 230.1 L 315.5 229.8 L 317.6 228.5 L 317.1 227.1 L 320.6 226.2 L 320.0 227.1 L 317.6 228.5 L 318.0 229.6 L 316.1 230.1 L 316.4 230.2 z M 505.6 229.7 L 474.4 229.0 L 472.2 214.8 L 528.5 210.8 L 529.9 209.6 L 471.1 207.4 L 470.0 200.0 L 469.2 199.6 L 495.9 184.1 L 497.3 183.7 L 496.7 183.6 L 497.4 183.2 L 486.5 179.9 L 499.2 176.2 L 502.9 180.0 L 497.4 183.2 L 498.3 183.4 L 497.3 183.7 L 509.7 187.2 L 530.6 209.1 L 529.9 209.6 L 531.1 209.7 L 532.0 210.6 L 528.5 210.8 z M 417.9 229.5 L 420.9 227.8 L 422.0 227.8 L 422.1 228.3 z M 318.5 229.4 L 320.0 227.1 L 322.3 225.7 L 322.7 225.6 L 324.2 225.7 L 325.4 226.6 L 325.6 227.4 L 320.5 228.9 z M 270.6 229.3 L 267.1 226.2 L 270.5 224.4 L 274.0 224.5 L 276.0 228.9 z M 152.3 229.2 L 156.9 226.7 L 148.1 225.0 L 148.1 224.8 L 152.6 221.8 L 147.8 221.7 L 147.5 217.6 L 142.6 215.9 L 142.3 212.6 L 144.4 207.4 L 141.6 205.9 L 140.8 198.3 L 146.1 199.8 L 146.3 202.6 L 144.4 207.4 L 146.8 208.7 L 147.5 217.6 L 155.0 220.3 L 152.6 221.8 L 160.0 222.0 L 163.3 223.2 L 156.9 226.7 L 158.8 227.1 z M 309.5 229.2 L 305.0 228.2 L 308.5 226.6 L 310.2 227.4 L 311.7 228.6 z M 470.3 228.9 L 466.1 228.8 L 462.9 226.8 z M 304.6 228.3 L 304.1 227.9 L 305.0 228.2 z M 303.6 227.7 L 302.6 227.0 L 304.7 226.8 z M 298.3 227.3 L 299.3 226.8 L 298.6 226.7 L 299.9 225.2 L 299.8 225.1 L 299.9 225.1 L 299.9 225.2 L 301.2 226.0 L 299.3 226.8 L 299.7 226.9 L 299.1 227.2 z M 300.5 227.1 L 299.7 226.9 L 301.4 226.2 L 302.6 227.0 z M 344.4 227.0 L 342.1 226.1 L 344.3 226.1 L 344.4 226.1 z M 284.8 227.0 L 284.6 224.8 L 274.0 224.5 L 273.3 223.0 L 276.2 221.4 L 284.5 223.4 L 284.6 224.8 L 286.3 224.8 L 285.9 226.4 z M 308.6 226.5 L 309.0 226.3 L 307.7 225.3 L 306.6 225.3 L 307.1 224.8 L 306.1 223.9 L 310.3 222.2 L 310.9 221.6 L 314.5 219.9 L 314.2 219.0 L 314.7 218.5 L 315.8 219.3 L 314.5 219.9 L 314.7 220.3 L 310.3 222.2 L 307.1 224.8 L 307.7 225.3 L 311.1 225.4 L 309.0 226.3 L 309.1 226.5 z M 363.2 226.5 L 354.2 226.3 L 354.3 224.0 L 355.5 223.2 L 362.8 222.7 L 364.2 225.8 z M 392.3 226.1 L 384.6 221.1 L 391.3 220.6 L 381.7 214.0 L 383.4 212.9 L 391.2 210.9 L 406.9 214.6 L 400.0 220.0 L 391.3 220.6 L 395.5 223.5 z M 316.7 225.9 L 316.5 225.5 L 311.1 225.4 L 315.7 223.3 L 314.7 220.3 L 316.2 219.7 L 319.0 221.8 L 315.7 223.3 L 316.5 225.5 L 321.0 225.6 L 320.9 225.7 z M 332.6 225.8 L 331.1 225.8 L 334.1 224.9 L 334.5 225.3 z M 424.4 225.7 L 422.8 224.2 L 423.7 224.0 L 424.8 225.5 z M 321.7 225.6 L 321.0 225.6 L 322.0 224.0 L 323.4 225.1 L 322.7 225.5 z M 306.2 225.6 L 305.5 225.2 L 306.6 225.3 z M 325.2 225.3 L 325.1 225.0 L 332.0 223.1 L 333.8 224.7 z M 335.9 225.0 L 336.0 224.6 L 337.2 224.5 L 337.5 224.6 z M 288.7 224.9 L 286.3 224.8 L 286.5 223.9 L 284.5 223.4 L 284.1 217.3 L 285.9 216.3 L 284.0 215.4 L 283.9 214.7 L 286.1 216.2 L 285.9 216.3 L 287.5 217.1 L 288.1 217.5 L 286.5 223.9 L 289.4 224.5 z M 80.0 224.8 L 77.8 223.7 L 77.6 221.6 L 79.7 220.2 L 77.5 220.2 L 77.1 215.1 L 80.0 212.3 L 80.0 211.7 L 78.6 211.4 L 80.0 210.0 L 80.0 194.0 L 75.7 192.5 L 75.2 192.5 L 75.2 192.3 L 75.7 192.5 L 80.0 192.6 L 80.0 194.0 L 91.8 198.2 L 80.0 210.0 L 80.0 211.7 L 80.5 211.8 L 80.0 212.3 L 80.0 220.0 L 79.7 220.2 L 80.0 220.2 z M 304.4 224.7 L 304.3 224.7 L 305.2 224.3 L 306.1 223.9 L 303.1 221.4 L 309.1 214.3 L 308.7 214.0 L 310.0 213.3 L 310.7 212.5 L 302.5 208.9 L 306.1 207.3 L 304.5 206.5 L 308.8 204.2 L 309.4 205.9 L 306.1 207.3 L 310.9 210.0 L 311.5 211.6 L 310.7 212.5 L 311.2 212.7 L 310.0 213.3 L 309.1 214.3 L 313.8 217.8 L 314.2 219.0 L 310.9 221.6 L 306.1 223.9 L 306.1 223.9 L 305.2 224.3 z M 336.1 224.3 L 336.1 223.9 L 333.8 222.6 L 334.0 222.5 L 332.6 221.9 L 330.6 220.8 L 333.5 219.0 L 336.7 221.1 L 336.5 221.9 L 334.0 222.5 L 336.2 223.5 L 336.1 223.9 L 336.7 224.2 z M 263.0 224.3 L 252.5 224.1 L 258.1 219.9 L 249.8 212.5 L 249.6 211.4 L 250.7 211.9 L 259.1 219.2 L 258.1 219.9 z M 290.0 224.2 L 290.0 218.7 L 292.2 220.1 L 291.6 223.3 z M 252.3 224.1 L 248.7 224.0 L 245.5 213.1 L 247.0 210.3 L 246.4 210.1 L 246.7 209.7 L 243.7 207.0 L 243.2 205.3 L 237.9 200.7 L 241.5 199.5 L 241.3 198.7 L 243.6 198.8 L 241.5 199.5 L 243.2 205.3 L 247.3 208.9 L 246.7 209.7 L 247.2 210.1 L 247.0 210.3 L 247.8 210.6 L 249.8 212.5 z M 344.3 224.0 L 344.2 222.9 L 344.5 222.8 L 346.1 223.8 z M 165.4 223.9 L 163.3 223.2 L 164.4 222.6 z M 427.6 223.9 L 426.9 223.6 L 428.7 223.3 L 430.4 222.2 L 431.1 222.9 L 428.7 223.3 z M 354.3 223.3 L 354.4 220.3 L 360.9 218.6 L 361.2 219.2 L 355.5 223.2 z M 421.2 222.8 L 420.0 221.7 L 420.9 220.9 L 420.9 220.8 L 421.0 220.8 L 420.9 220.9 z M 435.1 222.3 L 437.7 219.8 L 442.6 221.1 z M 171.9 222.3 L 165.2 222.1 L 168.4 220.4 L 161.0 216.4 L 172.3 209.0 L 181.5 213.2 L 168.4 220.4 z M 343.5 222.2 L 341.0 220.6 L 344.1 219.8 L 344.2 221.9 z M 94.8 221.9 L 91.2 220.5 L 96.0 220.6 z M 374.0 221.9 L 372.0 220.5 L 377.2 217.0 L 377.5 219.4 L 375.8 221.7 z M 444.5 221.7 L 442.6 221.1 L 447.8 220.3 L 448.1 220.6 z M 377.8 221.6 L 377.5 219.4 L 378.9 217.4 L 384.6 221.1 z M 175.7 221.4 L 184.1 214.3 L 181.5 213.2 L 192.5 207.1 L 192.9 206.8 L 193.0 206.9 L 192.5 207.1 L 184.1 214.3 L 189.6 216.8 z M 454.2 221.3 L 452.9 220.6 L 456.5 216.0 L 457.6 215.9 L 461.8 209.1 L 463.4 207.1 L 471.1 207.4 L 472.2 214.8 L 457.6 215.9 z M 330.3 221.0 L 329.1 220.4 L 327.9 219.3 L 326.3 218.4 L 326.7 218.3 L 326.0 217.7 L 327.6 215.2 L 330.0 216.7 L 326.7 218.3 L 327.9 219.3 L 330.6 220.8 z M 421.2 220.6 L 420.8 219.9 L 420.5 218.5 L 423.0 218.4 L 423.6 218.5 z M 292.3 219.2 L 290.0 218.2 L 290.0 214.1 L 292.7 212.7 L 293.4 213.2 z M 354.4 218.9 L 354.5 216.9 L 359.5 215.6 L 360.3 217.2 z M 325.4 218.8 L 325.3 218.8 L 325.7 218.2 L 323.8 217.1 L 323.7 216.5 L 324.4 216.2 L 323.8 215.6 L 326.4 214.4 L 327.3 215.0 L 324.4 216.2 L 326.0 217.7 L 325.7 218.2 L 326.3 218.4 z M 416.7 218.8 L 414.4 217.8 L 414.1 216.3 L 414.1 216.3 L 416.9 218.8 z M 300.0 218.8 L 293.4 213.2 L 293.5 212.3 L 299.0 209.3 L 300.0 210.0 L 302.1 209.1 L 308.7 214.0 z M 419.8 218.6 L 418.9 217.4 L 414.1 216.3 L 414.1 216.2 L 413.4 213.7 L 417.4 215.2 L 418.9 217.4 L 420.4 217.8 L 420.5 218.5 z M 324.0 218.2 L 321.9 217.3 L 323.2 216.7 L 322.3 216.3 L 323.6 215.7 L 323.5 215.3 L 321.1 213.2 L 322.7 211.9 L 322.9 212.1 L 323.5 215.3 L 323.8 215.6 L 323.6 215.7 L 323.7 216.5 L 323.2 216.7 L 323.8 217.1 z M 425.2 218.2 L 424.4 217.9 L 425.0 217.3 L 426.0 218.1 z M 344.4 217.8 L 344.1 217.7 L 344.0 215.2 L 346.1 216.9 z M 288.2 217.3 L 287.5 217.1 L 286.1 216.2 L 288.8 214.8 z M 440.5 217.1 L 441.1 216.6 L 440.6 216.3 L 442.5 215.2 L 441.1 216.6 L 441.9 217.0 z M 367.0 217.1 L 365.6 216.1 L 366.6 215.3 L 372.9 213.4 L 371.3 212.4 L 376.3 211.0 L 376.5 212.4 L 372.9 213.4 L 375.2 214.9 z M 321.0 216.9 L 318.1 215.7 L 319.4 214.7 L 313.5 211.4 L 317.1 209.5 L 321.1 213.2 L 319.4 214.7 L 322.3 216.3 z M 412.4 216.8 L 408.2 214.9 L 406.9 214.6 L 407.1 214.4 L 396.6 209.5 L 398.9 208.9 L 393.5 207.4 L 395.3 206.9 L 399.9 208.6 L 398.9 208.9 L 405.6 210.8 L 409.8 212.3 L 407.1 214.4 L 408.2 214.9 L 412.6 215.9 z M 262.4 216.8 L 250.7 211.9 L 249.4 210.8 L 248.7 207.3 L 250.0 205.0 L 252.7 201.2 L 252.2 201.0 L 253.3 199.2 L 254.1 199.2 L 252.7 201.2 L 266.1 207.3 L 268.4 212.3 z M 446.5 216.7 L 446.3 216.5 L 443.4 214.7 L 444.3 214.2 L 446.3 216.5 L 446.7 216.7 z M 420.2 216.3 L 417.4 215.2 L 416.3 213.8 L 420.0 214.8 z M 377.1 216.2 L 375.2 214.9 L 376.8 214.5 z M 365.1 215.8 L 363.4 214.5 L 370.4 212.6 L 371.0 212.2 L 364.3 207.8 L 368.8 205.6 L 359.7 203.5 L 360.1 203.2 L 366.3 203.4 L 369.2 205.4 L 368.8 205.6 L 369.7 205.8 L 375.0 209.4 L 371.0 212.2 L 371.3 212.4 L 370.4 212.6 L 366.6 215.3 z M 423.4 215.8 L 420.0 214.8 L 419.6 212.2 z M 339.1 215.7 L 337.8 215.2 L 338.2 213.0 L 340.1 212.2 L 342.2 213.9 z M 158.9 215.3 L 146.8 208.7 L 146.3 202.6 L 147.3 200.2 L 146.1 199.8 L 146.0 198.0 L 147.4 199.9 L 147.3 200.2 L 147.7 200.3 z M 412.9 215.1 L 409.9 212.4 L 409.8 212.3 L 409.8 212.3 L 409.2 211.8 L 410.1 212.0 L 409.8 212.3 L 409.9 212.4 L 413.3 213.7 z M 380.9 214.5 L 381.4 213.8 L 381.7 214.0 z M 335.4 214.3 L 332.1 213.0 L 337.9 210.5 L 338.6 211.0 L 338.2 213.0 z M 89.6 213.6 L 80.5 211.8 L 94.0 198.9 L 91.8 198.2 L 96.7 193.3 L 80.0 192.6 L 80.0 185.5 L 90.2 183.1 L 80.0 180.0 L 80.0 185.5 L 74.7 186.8 L 74.0 177.6 L 87.6 176.6 L 73.2 168.8 L 73.0 166.4 L 75.9 165.3 L 72.8 163.9 L 70.0 130.0 L 81.1 139.9 L 80.0 140.0 L 82.4 141.0 L 99.7 156.4 L 75.9 165.3 L 99.0 175.8 L 87.6 176.6 L 96.6 181.5 L 90.2 183.1 L 103.1 186.9 L 96.7 193.3 L 99.7 193.4 L 94.0 198.9 L 101.6 201.6 L 97.3 208.5 z M 381.8 213.3 L 384.0 210.2 L 385.9 209.6 L 387.6 210.0 L 383.4 212.9 z M 76.9 213.1 L 76.8 211.1 L 78.6 211.4 z M 312.0 213.0 L 311.2 212.7 L 311.8 212.4 z M 330.5 212.4 L 329.6 212.0 L 333.1 206.6 L 336.7 209.5 z M 129.4 211.3 L 110.5 204.7 L 120.1 194.2 L 132.3 200.8 L 130.5 209.1 L 130.0 210.0 z M 431.8 211.3 L 421.7 205.5 L 429.3 205.8 L 434.4 209.0 z M 312.2 210.7 L 310.9 210.0 L 309.4 205.9 L 311.5 204.9 L 312.4 205.3 L 314.9 207.6 z M 447.2 210.7 L 445.9 206.4 L 437.6 206.1 L 444.1 200.4 L 443.3 197.5 L 448.9 196.1 L 453.0 192.5 L 449.3 190.9 L 457.6 188.4 L 471.1 176.5 L 459.4 173.3 L 460.9 172.1 L 472.1 175.5 L 471.1 176.5 L 480.2 179.0 L 476.1 183.0 L 457.6 188.4 L 453.0 192.5 L 456.6 194.1 L 448.9 196.1 L 444.1 200.4 L 445.9 206.4 L 451.4 206.7 z M 414.1 210.6 L 413.3 209.6 L 414.6 208.5 z M 535.6 210.3 L 535.1 209.8 L 540.0 210.0 z M 376.3 210.3 L 375.0 209.4 L 376.0 208.7 z M 324.8 210.2 L 322.4 209.2 L 322.0 206.8 L 328.7 203.2 L 327.2 202.0 L 321.2 201.7 L 321.0 200.8 L 324.0 199.5 L 327.2 202.0 L 330.7 202.1 L 328.7 203.2 L 331.0 205.0 z M 412.5 210.2 L 411.9 207.7 L 413.3 209.6 z M 160.0 210.0 L 149.8 200.9 L 163.9 205.2 L 167.6 206.8 z M 180.0 210.0 L 173.7 208.1 L 186.0 200.1 L 185.3 199.5 L 190.0 197.5 L 191.0 196.8 L 191.6 196.8 L 190.0 197.5 L 186.0 200.1 L 190.2 204.2 z M 380.1 208.3 L 377.4 207.6 L 380.4 205.6 L 380.5 204.0 L 375.4 203.8 L 375.2 202.4 L 375.4 202.3 L 380.5 203.8 L 380.5 204.0 L 381.5 204.0 L 382.3 204.2 L 380.4 205.6 z M 414.8 207.8 L 412.2 205.5 L 413.2 205.2 L 411.9 205.2 L 411.1 204.4 L 410.6 202.3 L 414.1 201.3 L 416.2 202.4 L 415.6 204.6 L 413.2 205.2 L 415.4 205.3 z M 392.6 207.6 L 391.7 207.2 L 392.1 207.0 L 389.8 206.4 L 387.5 205.3 L 388.2 204.3 L 388.5 204.3 L 393.3 206.1 L 392.1 207.0 L 393.5 207.4 z M 404.5 207.4 L 401.8 204.9 L 402.2 204.8 L 401.6 204.8 L 398.9 202.3 L 404.6 198.5 L 406.6 200.3 L 408.5 202.9 L 402.2 204.8 L 410.1 205.1 L 410.6 205.9 z M 532.9 207.1 L 518.5 189.6 L 520.0 190.0 L 518.4 189.5 L 510.8 180.3 L 587.4 160.7 L 587.3 162.2 z M 168.4 206.5 L 163.9 205.2 L 148.2 198.1 L 149.3 195.3 L 145.8 195.1 L 144.9 183.5 L 151.0 172.7 L 152.0 172.0 L 155.4 171.8 L 157.2 172.5 L 158.2 173.5 L 149.3 195.3 L 182.2 196.5 L 185.3 199.5 z M 437.2 206.5 L 436.9 206.1 L 437.6 206.1 z M 387.2 205.6 L 382.3 204.2 L 382.5 204.1 L 381.5 204.0 L 380.5 203.8 L 380.7 202.1 L 383.4 203.4 L 382.5 204.1 L 385.1 204.2 L 387.5 205.3 z M 294.7 205.5 L 291.5 204.2 L 292.1 201.6 L 295.0 203.8 z M 418.5 205.4 L 418.5 205.4 L 415.4 205.3 L 415.6 204.6 L 418.3 203.9 L 418.3 203.6 L 418.7 203.8 L 418.3 203.9 L 418.5 205.4 L 418.6 205.4 z M 312.2 205.1 L 311.8 204.8 L 311.9 204.8 L 310.3 203.4 L 313.9 201.5 L 307.9 201.2 L 307.6 201.0 L 303.7 190.3 L 299.5 189.3 L 302.6 187.0 L 303.7 190.3 L 316.0 193.2 L 320.3 196.5 L 320.5 198.0 L 313.9 201.5 L 319.1 201.7 L 311.9 204.8 z M 358.6 204.1 L 358.2 203.8 L 359.3 203.4 L 358.4 203.2 L 359.7 203.2 L 359.3 203.4 L 359.7 203.5 z M 308.7 203.8 L 301.4 201.0 L 295.5 200.8 L 295.9 198.8 L 301.4 201.0 L 306.2 201.2 L 308.2 202.5 z M 372.6 203.7 L 366.3 203.4 L 363.4 201.5 L 366.9 199.9 L 375.1 202.2 L 375.2 202.4 z M 290.1 203.5 L 290.0 203.5 L 290.0 203.5 L 285.2 200.4 L 290.0 200.6 L 290.0 203.5 z M 421.5 203.1 L 423.0 201.9 L 420.0 200.0 L 420.9 199.3 L 428.6 197.0 L 428.9 197.3 L 423.0 201.9 L 424.0 202.5 z M 355.5 203.0 L 354.9 203.0 L 354.9 202.3 L 353.2 201.9 L 353.1 201.7 L 354.2 201.2 L 354.9 201.7 L 354.9 202.3 L 356.4 202.7 z M 353.7 203.0 L 350.7 202.9 L 352.9 201.8 L 343.4 199.6 L 343.3 195.3 L 344.3 194.8 L 343.8 194.4 L 344.7 193.7 L 345.7 194.0 L 344.3 194.8 L 352.3 200.0 L 353.1 201.7 L 352.9 201.8 L 353.2 201.9 z M 105.6 202.9 L 101.6 201.6 L 106.6 193.7 L 99.7 193.4 L 105.6 187.7 L 103.1 186.9 L 104.3 185.7 L 96.6 181.5 L 106.4 179.1 L 99.0 175.8 L 115.4 174.6 L 117.7 172.3 L 119.2 173.8 L 118.8 174.4 L 115.4 174.6 L 112.3 177.7 L 106.4 179.1 L 109.5 180.5 L 104.3 185.7 L 106.5 186.8 L 105.6 187.7 L 109.7 188.9 L 106.6 193.7 L 118.8 194.1 z M 281.1 202.9 L 277.7 200.1 L 282.5 200.3 L 282.9 200.4 L 283.0 201.5 z M 384.4 202.7 L 380.7 201.3 L 380.9 199.6 L 390.6 194.7 L 389.4 193.6 L 391.8 194.1 L 390.6 194.7 L 392.8 196.8 z M 409.2 202.7 L 406.6 200.3 L 405.1 198.2 L 406.6 197.2 L 404.0 196.7 L 402.6 194.7 L 398.8 192.5 L 400.3 191.5 L 402.6 194.7 L 406.7 197.1 L 406.6 197.2 L 407.2 197.3 L 409.7 198.7 L 410.6 202.3 z M 356.5 202.7 L 356.4 202.7 L 356.4 202.7 z M 346.2 202.7 L 343.5 202.6 L 343.5 200.8 L 340.8 199.0 L 340.8 199.0 L 340.8 199.0 L 339.4 198.1 L 341.3 196.5 L 341.3 196.4 L 341.8 196.1 L 341.3 196.5 L 340.8 199.0 L 340.8 199.0 L 343.4 199.6 L 343.5 200.8 z M 340.2 202.5 L 335.8 202.3 L 337.5 199.7 L 338.8 198.6 L 338.3 198.4 L 338.7 197.8 L 338.9 197.7 L 339.4 198.1 L 338.8 198.6 L 340.8 199.0 z M 334.4 202.2 L 330.7 202.1 L 337.8 198.3 L 338.3 198.4 L 337.5 199.7 z M 134.5 202.0 L 132.3 200.8 L 133.3 196.0 L 128.2 194.5 L 120.1 194.2 L 121.6 192.5 L 128.2 194.5 L 133.6 194.7 L 133.3 196.0 L 137.2 197.2 z M 363.2 201.3 L 361.8 200.4 L 364.5 199.3 L 366.0 199.7 z M 307.7 201.2 L 306.2 201.2 L 296.5 194.9 L 297.1 191.5 L 296.9 191.2 L 297.2 190.9 L 297.1 191.5 L 307.6 201.0 z M 263.2 201.0 L 260.8 199.5 L 254.1 199.2 L 256.1 196.4 L 255.2 195.8 L 255.7 194.8 L 257.6 194.1 L 256.1 196.4 L 260.8 199.5 L 262.5 199.5 z M 237.0 201.0 L 234.2 198.5 L 217.3 197.8 L 212.8 195.9 L 224.3 189.6 L 221.3 187.0 L 220.8 186.7 L 220.9 186.6 L 219.4 185.3 L 220.0 185.0 L 219.3 184.3 L 227.3 177.5 L 224.1 175.3 L 224.4 175.1 L 228.1 176.8 L 227.3 177.5 L 231.5 180.2 L 220.0 185.0 L 221.5 186.3 L 220.9 186.6 L 221.3 187.0 L 223.2 187.8 L 224.9 189.3 L 224.3 189.6 L 234.2 198.5 L 235.4 198.5 L 237.9 200.7 z M 320.6 201.0 L 320.9 200.6 L 321.0 200.8 z M 294.0 200.7 L 292.3 200.7 L 292.5 199.9 L 290.0 198.5 L 290.0 196.5 L 293.1 197.7 L 292.5 199.9 z M 431.8 200.5 L 428.9 197.3 L 429.7 196.7 L 441.9 193.1 L 440.5 188.2 L 441.5 187.4 L 449.3 190.9 L 441.9 193.1 L 443.3 197.5 z M 282.9 200.3 L 282.5 200.3 L 273.1 196.2 L 266.9 191.0 L 269.5 190.2 L 263.3 186.1 L 263.3 186.1 L 263.0 186.0 L 261.3 184.8 L 262.2 183.2 L 253.6 178.5 L 252.7 178.3 L 252.6 177.9 L 249.1 176.0 L 251.2 174.9 L 252.6 177.9 L 253.6 178.5 L 263.5 180.8 L 262.2 183.2 L 264.4 184.4 L 263.3 186.1 L 271.8 189.4 L 269.5 190.2 L 282.8 198.8 z M 284.8 200.1 L 282.8 198.8 L 282.4 194.3 L 277.5 191.6 L 280.3 192.7 L 282.4 194.3 L 282.4 194.3 L 282.5 194.4 L 287.5 198.1 z M 290.0 200.0 L 287.5 198.1 L 288.3 197.6 L 290.0 198.5 z M 469.1 199.7 L 469.2 199.6 L 469.2 199.6 z M 147.8 199.1 L 146.0 197.5 L 145.9 197.0 L 144.9 196.6 L 143.8 195.1 L 145.8 195.1 L 145.9 197.0 L 148.2 198.1 z M 359.4 198.8 L 357.2 197.2 L 355.1 196.6 L 355.1 195.8 L 357.2 197.2 L 360.6 198.2 z M 245.8 198.1 L 240.4 195.6 L 236.9 183.8 L 244.8 188.9 L 246.7 197.8 z M 144.9 196.5 L 141.4 195.0 L 140.5 194.9 L 140.4 194.6 L 141.4 195.0 L 143.2 195.0 z M 462.0 196.5 L 456.6 194.1 L 467.3 191.4 z M 402.3 196.3 L 395.4 194.9 L 398.4 192.8 z M 290.0 196.3 L 290.0 190.6 L 294.1 193.3 z M 394.1 195.8 L 394.9 194.8 L 395.4 194.9 z M 325.4 195.4 L 329.2 191.0 L 331.1 192.3 z M 350.1 195.2 L 345.7 194.0 L 348.8 192.3 z M 254.3 195.2 L 244.8 188.9 L 243.6 183.4 L 239.1 181.5 L 242.8 179.5 L 242.4 177.9 L 239.6 176.8 L 242.0 175.8 L 242.4 177.9 L 244.3 178.6 L 242.8 179.5 L 243.6 183.4 L 257.9 189.7 L 258.2 190.3 L 255.7 194.8 z M 138.5 194.8 L 133.6 194.7 L 134.2 191.7 L 127.2 188.5 L 132.1 185.2 L 130.0 183.3 L 137.8 174.8 L 136.1 182.6 L 132.1 185.2 L 135.0 187.8 L 134.2 191.7 L 139.1 193.9 z M 343.2 194.0 L 341.9 193.2 L 341.9 192.9 L 343.2 193.3 z M 208.1 193.9 L 208.0 193.9 L 217.0 186.2 L 218.4 185.7 L 220.8 186.7 z M 119.3 193.8 L 111.0 189.3 L 109.7 188.9 L 109.8 188.6 L 106.5 186.8 L 111.9 181.6 L 109.5 180.5 L 112.3 177.7 L 117.2 176.5 L 117.8 175.9 L 118.8 174.4 L 119.5 174.3 L 119.7 174.2 L 119.8 174.3 L 119.5 174.3 L 117.8 175.9 L 117.5 176.5 L 117.2 176.5 L 111.9 181.6 L 113.7 182.4 L 109.8 188.6 L 111.0 189.3 L 121.4 192.4 z M 282.4 193.6 L 280.3 192.7 L 274.6 188.5 L 281.9 186.1 L 281.8 185.3 L 282.6 185.8 L 281.9 186.1 z M 294.2 193.3 L 294.1 193.3 L 294.2 193.2 z M 381.4 193.3 L 381.5 192.1 L 381.6 192.0 L 383.4 192.4 z M 341.7 193.0 L 341.3 192.8 L 340.1 192.4 L 340.5 192.3 L 341.3 192.8 L 341.8 192.9 z M 263.6 192.1 L 260.1 190.6 L 262.5 187.3 L 266.9 191.0 z M 259.1 192.1 L 258.2 190.3 L 258.5 189.9 L 260.1 190.6 z M 379.6 191.6 L 376.2 190.9 L 381.8 188.2 L 381.6 190.4 z M 348.2 191.0 L 348.0 190.9 L 348.1 190.9 L 347.4 189.3 L 348.0 189.0 L 347.1 188.6 L 346.0 186.3 L 346.1 186.1 L 345.8 185.9 L 345.3 184.8 L 345.9 184.6 L 345.1 184.4 L 344.0 182.0 L 346.0 171.3 L 351.0 165.4 L 355.9 168.2 L 355.9 170.8 L 347.7 183.6 L 345.9 184.6 L 347.0 184.8 L 346.1 186.1 L 350.3 188.0 L 348.0 189.0 L 349.6 189.6 L 348.1 190.9 z M 352.1 190.5 L 349.6 189.6 L 351.1 188.4 L 350.3 188.0 L 353.0 186.8 L 353.8 186.2 L 354.2 186.3 L 353.0 186.8 L 351.1 188.4 L 353.8 189.6 z M 373.5 190.3 L 358.3 187.2 L 372.0 179.7 z M 346.3 189.8 L 344.6 188.6 L 345.0 187.8 L 343.0 187.1 L 343.3 185.9 L 344.5 185.3 L 345.8 185.9 L 346.0 186.3 L 345.0 187.8 L 347.1 188.6 L 347.4 189.3 z M 355.3 188.8 L 355.4 186.5 L 358.3 187.2 z M 477.6 188.7 L 483.9 180.7 L 485.0 180.3 L 484.3 180.2 L 484.9 179.4 L 486.5 179.9 L 485.0 180.3 L 496.7 183.6 L 495.9 184.1 z M 403.3 188.4 L 400.7 186.6 L 402.8 183.5 L 405.6 182.2 L 406.7 186.7 z M 325.2 188.3 L 318.5 186.4 L 318.0 183.3 L 312.6 179.6 L 314.6 178.1 L 308.6 176.8 L 300.6 171.3 L 300.7 171.1 L 299.8 170.7 L 300.9 166.4 L 301.4 166.7 L 300.7 171.1 L 316.1 176.9 L 314.6 178.1 L 317.2 178.6 L 318.0 183.3 z M 125.8 187.9 L 113.7 182.4 L 117.5 176.5 L 121.3 175.6 L 130.0 183.3 z M 420.3 187.9 L 420.1 187.7 L 422.4 179.0 L 422.2 178.9 L 422.4 178.8 L 422.4 179.0 L 429.1 182.0 z M 343.0 187.5 L 343.0 187.5 L 343.0 187.3 L 343.0 187.1 L 341.9 186.7 L 343.0 186.1 L 343.0 187.1 L 343.0 187.1 L 343.0 187.3 z M 381.9 186.8 L 373.4 179.0 L 374.2 178.6 L 382.2 183.2 z M 509.3 186.8 L 498.3 183.4 L 504.6 181.8 z M 341.7 186.6 L 335.1 184.1 L 336.2 182.8 L 335.6 182.4 L 324.6 180.1 L 318.3 177.7 L 316.9 176.8 L 316.8 176.4 L 320.1 174.0 L 330.0 178.6 L 335.6 182.4 L 336.4 182.6 L 336.2 182.8 z M 408.0 186.0 L 414.4 181.5 L 414.9 182.1 L 415.0 182.5 z M 438.0 185.9 L 429.1 182.0 L 437.0 176.6 L 435.6 172.2 L 442.7 168.7 L 447.0 169.9 L 437.0 176.6 L 439.4 184.7 z M 398.9 185.3 L 398.3 184.9 L 403.3 182.8 L 405.1 180.3 L 405.5 181.9 L 403.3 182.8 L 402.8 183.5 z M 261.1 185.2 L 259.1 184.4 L 253.7 179.9 L 253.4 179.7 L 253.3 179.6 L 251.4 178.0 L 250.3 177.7 L 248.3 176.4 L 249.1 176.0 L 251.4 178.0 L 252.7 178.3 L 253.3 179.6 L 253.7 179.9 L 261.3 184.8 z M 281.5 185.1 L 266.5 181.5 L 269.5 177.2 L 266.6 175.3 L 268.3 172.3 L 272.2 173.4 L 269.5 177.2 z M 343.6 184.1 L 342.9 183.9 L 342.7 179.3 L 341.5 176.6 L 342.6 175.3 L 342.7 179.3 L 344.0 182.0 z M 340.5 183.4 L 336.4 182.6 L 337.0 181.8 z M 212.4 182.9 L 183.5 169.8 L 200.7 168.5 L 196.9 165.2 L 197.5 165.3 L 201.1 168.5 L 200.7 168.5 L 215.0 181.3 z M 236.7 182.8 L 235.9 180.1 L 239.1 181.5 z M 254.8 182.7 L 244.3 178.6 L 247.3 177.0 L 250.3 177.7 L 253.4 179.7 z M 394.8 182.5 L 394.5 182.2 L 398.4 180.4 L 404.0 177.0 L 390.7 170.3 L 396.7 167.7 L 402.6 170.3 L 404.2 176.9 L 404.0 177.0 L 404.3 177.1 L 404.4 177.6 L 398.4 180.4 z M 300.5 181.3 L 299.0 180.9 L 299.1 180.3 L 299.5 180.2 L 300.3 180.7 z M 264.9 181.1 L 263.5 180.8 L 263.8 180.3 z M 392.8 181.1 L 383.0 174.3 L 383.0 173.8 L 384.0 173.3 L 386.4 172.2 L 386.3 172.0 L 390.0 170.0 L 390.7 170.3 L 386.4 172.2 z M 298.0 180.7 L 297.4 180.5 L 297.8 178.8 L 299.1 179.9 L 299.1 180.3 z M 355.6 179.4 L 355.9 170.8 L 357.1 168.9 L 355.9 168.2 L 356.1 163.1 L 354.4 161.5 L 356.2 159.4 L 356.1 163.1 L 359.0 165.8 L 357.1 168.9 L 365.9 173.9 z M 233.8 179.2 L 228.1 176.8 L 231.7 173.7 L 229.3 172.8 L 232.1 173.4 L 231.7 173.7 L 234.3 174.7 L 235.4 178.4 z M 290.0 178.4 L 281.1 175.9 L 280.8 171.0 L 290.0 172.9 z M 382.6 178.2 L 379.8 175.6 L 382.6 174.0 L 382.5 173.9 L 383.0 173.7 L 383.0 173.8 L 382.6 174.0 L 383.0 174.3 z M 414.3 178.2 L 413.9 175.2 L 411.5 174.2 L 413.6 173.2 L 413.9 175.2 L 417.4 176.8 z M 481.0 178.2 L 472.1 175.5 L 486.5 162.8 L 489.1 165.5 L 481.3 178.0 z M 144.4 177.1 L 144.0 172.6 L 151.3 172.1 L 151.0 172.7 z M 508.1 176.9 L 505.8 174.2 L 520.0 170.0 z M 241.9 175.8 L 240.5 175.4 L 241.7 174.7 L 241.1 171.7 L 243.9 173.5 L 241.7 174.7 z M 279.5 175.4 L 272.2 173.4 L 274.1 170.6 z M 300.0 175.0 L 298.8 174.8 L 299.8 170.8 L 299.8 170.7 L 290.0 167.0 L 290.0 164.0 L 289.6 163.7 L 290.0 163.5 L 290.0 164.0 L 299.8 170.7 L 299.8 170.7 L 299.8 170.8 L 300.6 171.3 z M 423.7 174.0 L 425.4 167.7 L 430.4 165.3 L 433.9 166.2 L 434.2 167.4 L 427.3 172.3 z M 409.9 173.5 L 409.9 173.5 L 412.9 169.2 L 413.3 171.5 z M 244.2 173.3 L 241.1 171.6 L 240.4 168.8 L 245.2 172.8 z M 367.2 173.3 L 359.0 165.8 L 362.7 160.1 L 364.0 161.0 L 370.3 166.8 L 370.9 171.3 z M 158.4 173.0 L 157.2 172.5 L 156.3 171.7 L 159.0 171.5 L 161.3 165.9 L 170.2 163.7 L 166.8 162.2 L 171.3 159.1 L 164.7 157.6 L 167.6 150.6 L 164.2 149.1 L 165.1 147.6 L 168.2 148.9 L 167.6 150.6 L 177.6 154.9 L 171.3 159.1 L 180.4 161.3 L 170.2 163.7 L 183.5 169.8 L 159.0 171.5 z M 139.5 172.9 L 141.6 170.7 L 143.8 170.1 L 143.7 168.3 L 144.7 167.2 L 143.6 166.8 L 143.0 158.9 L 148.0 163.7 L 144.7 167.2 L 148.7 168.9 L 143.8 170.1 L 144.0 172.6 z M 290.0 172.6 L 283.7 167.6 L 286.6 165.7 L 290.0 167.0 z M 228.5 172.5 L 215.7 167.4 L 231.5 166.3 L 231.9 166.6 L 232.8 169.7 z M 455.4 172.2 L 447.0 169.9 L 449.0 168.5 L 445.2 167.4 L 466.1 156.9 L 449.0 168.5 L 457.0 170.9 z M 233.6 172.2 L 232.8 169.7 L 235.0 168.3 L 231.9 166.6 L 231.8 166.3 L 232.7 166.2 L 235.4 168.0 L 235.0 168.3 L 236.9 169.3 z M 252.1 171.6 L 250.0 170.0 L 256.0 170.0 z M 405.2 171.4 L 402.6 170.3 L 402.0 167.9 z M 249.1 170.5 L 246.7 165.2 L 250.7 164.9 L 250.2 164.6 L 246.1 163.8 L 245.3 162.1 L 245.8 161.7 L 245.4 161.5 L 248.3 159.6 L 245.8 161.7 L 250.2 164.6 L 251.5 164.9 L 250.7 164.9 L 254.5 167.4 z M 269.6 170.0 L 270.3 168.8 L 272.7 169.3 L 273.4 170.0 z M 373.3 170.0 L 373.5 169.8 L 370.3 166.8 L 370.0 165.2 L 374.9 168.7 L 373.5 169.8 L 373.6 169.9 z M 280.7 169.6 L 280.4 165.0 L 283.7 167.6 z M 215.2 169.4 L 208.8 167.9 L 212.5 167.7 L 206.9 164.0 L 192.5 158.4 L 196.8 157.3 L 188.2 151.7 L 183.8 150.8 L 185.3 149.8 L 188.2 151.7 L 205.3 155.3 L 196.8 157.3 L 206.9 164.0 L 215.7 167.4 L 212.5 167.7 z M 257.5 169.4 L 254.5 167.4 L 256.9 166.0 L 251.5 164.9 L 260.0 164.3 L 264.4 161.8 L 266.6 163.8 L 260.0 164.3 L 256.9 166.0 L 262.7 167.2 z M 237.1 169.1 L 235.4 168.0 L 237.7 166.5 L 237.1 165.9 L 238.8 165.8 L 237.7 166.5 L 239.0 167.5 z M 434.7 168.9 L 434.2 167.4 L 435.3 166.6 L 433.9 166.2 L 433.2 164.0 L 433.5 163.8 L 437.6 165.1 L 435.3 166.6 L 438.1 167.4 z M 315.5 168.6 L 304.5 161.1 L 314.1 160.4 z M 383.5 168.2 L 381.9 165.9 L 381.4 165.7 L 381.6 165.6 L 381.9 165.9 L 383.6 166.8 z M 152.5 168.0 L 148.0 163.7 L 154.4 156.6 L 158.9 158.6 L 153.8 167.7 z M 206.5 167.4 L 197.5 165.3 L 193.4 161.8 z M 440.9 166.1 L 437.6 165.1 L 450.9 155.6 L 470.7 146.3 L 468.1 143.5 L 475.9 137.9 L 479.4 142.2 L 470.7 146.3 L 474.9 150.6 z M 161.1 165.9 L 161.4 165.8 L 161.3 165.9 z M 401.4 165.6 L 399.2 156.7 L 398.7 156.6 L 399.1 156.4 L 398.3 153.2 L 394.9 152.2 L 397.5 150.0 L 398.3 153.2 L 402.6 154.5 L 399.1 156.4 L 399.2 156.7 L 410.2 159.7 L 410.0 160.0 L 410.5 159.8 L 411.6 160.1 L 411.7 161.1 z M 381.5 165.5 L 379.9 164.6 L 380.5 164.1 L 376.8 158.9 L 383.3 161.8 L 380.5 164.1 z M 239.7 165.2 L 239.1 162.3 L 230.7 160.6 L 230.0 160.0 L 230.1 160.4 L 220.8 158.5 L 213.0 153.4 L 227.6 149.9 L 206.2 135.9 L 206.7 135.5 L 204.1 134.5 L 201.6 132.9 L 208.4 132.1 L 210.9 132.7 L 206.7 135.5 L 235.7 146.5 L 236.0 147.9 L 227.6 149.9 L 237.8 156.5 L 239.1 162.3 L 242.9 163.1 z M 139.8 165.2 L 132.3 162.0 L 139.3 155.3 L 141.5 157.4 z M 425.8 164.0 L 418.1 161.9 L 419.6 159.7 L 426.9 161.8 L 426.4 163.7 z M 271.7 163.4 L 273.7 162.6 L 274.5 161.2 L 269.1 159.1 L 271.3 157.8 L 262.1 150.6 L 266.5 147.8 L 264.1 146.2 L 264.2 146.1 L 263.8 145.9 L 258.6 142.4 L 262.7 141.4 L 248.1 131.8 L 243.1 131.7 L 238.6 128.6 L 242.5 128.2 L 248.1 131.8 L 262.3 132.2 L 272.4 139.1 L 272.4 139.1 L 262.7 141.4 L 266.6 144.0 L 264.2 146.1 L 267.8 146.9 L 266.5 147.8 L 276.6 154.8 L 271.3 157.8 L 274.8 160.7 L 274.5 161.2 L 275.9 161.7 L 273.7 162.6 L 273.3 163.3 z M 279.5 163.1 L 279.1 162.9 L 279.6 162.9 L 280.1 162.1 L 280.2 162.8 L 279.6 162.9 z M 335.2 162.8 L 331.1 154.2 L 316.9 146.1 L 325.0 140.8 L 331.1 154.2 L 340.1 159.2 z M 428.6 162.4 L 426.9 161.8 L 429.1 153.5 L 429.9 153.2 L 432.1 160.3 z M 287.6 162.3 L 282.5 158.8 L 284.6 155.7 L 280.1 152.8 L 283.5 150.9 L 280.7 150.2 L 282.9 146.3 L 286.8 149.0 L 283.5 150.9 L 287.4 151.8 L 284.6 155.7 L 290.0 159.2 L 290.0 162.1 z M 294.1 161.9 L 294.0 161.9 L 294.0 161.9 L 293.3 161.4 L 299.3 157.5 L 293.1 153.3 L 292.9 153.2 L 292.9 153.2 L 293.1 153.3 L 302.2 155.6 L 299.3 157.5 L 302.6 159.8 L 302.2 161.3 L 294.0 161.9 z M 276.4 161.9 L 275.9 161.7 L 276.1 161.6 z M 293.1 161.5 L 290.0 160.0 L 290.3 159.4 L 293.3 161.4 z M 302.4 161.3 L 302.6 159.8 L 304.5 161.1 z M 244.8 161.1 L 237.8 156.5 L 236.0 147.9 L 238.1 147.4 L 238.6 147.6 z M 384.1 161.1 L 384.8 152.7 L 370.0 148.6 L 372.1 145.3 L 384.9 149.2 L 385.1 149.3 L 384.8 152.7 L 389.2 153.9 L 390.8 155.6 z M 129.3 160.7 L 127.8 160.1 L 128.9 158.4 L 122.0 148.0 L 122.8 147.7 L 134.0 150.3 L 128.9 158.4 L 130.0 160.0 z M 413.1 160.5 L 411.6 160.1 L 411.4 159.4 L 414.7 158.2 L 416.9 158.8 z M 393.9 159.1 L 390.8 155.6 L 391.9 154.7 L 398.7 156.6 z M 190.2 158.9 L 187.2 156.3 L 192.5 158.4 z M 493.2 158.9 L 492.2 157.7 L 496.0 154.4 L 506.4 137.8 L 504.6 137.8 L 505.0 137.5 L 507.3 136.4 L 506.4 137.8 L 514.5 138.0 L 496.0 154.4 z M 369.1 158.8 L 364.9 156.6 L 366.4 154.3 L 368.7 155.3 z M 411.3 158.5 L 411.1 157.1 L 402.6 154.5 L 410.1 150.5 L 408.6 140.8 L 410.4 139.3 L 420.7 144.9 L 410.1 150.5 L 411.1 157.1 L 412.2 157.4 z M 313.7 158.4 L 303.5 155.9 L 303.9 154.5 L 312.1 149.1 z M 342.0 157.8 L 341.7 149.9 L 328.9 138.2 L 329.3 137.9 L 328.0 137.4 L 327.5 136.9 L 329.0 137.3 L 329.7 137.7 L 329.3 137.9 L 333.3 139.7 L 341.6 145.4 L 341.7 149.9 L 346.6 154.4 z M 215.1 157.3 L 205.3 155.3 L 209.5 154.3 z M 358.9 156.3 L 356.4 154.0 L 356.4 153.2 L 354.4 152.2 L 352.2 150.2 L 352.6 149.9 L 351.1 149.2 L 347.7 146.1 L 354.1 148.8 L 352.6 149.9 L 356.4 152.0 L 356.4 153.2 L 360.0 155.0 z M 303.3 155.8 L 302.2 155.6 L 303.5 154.7 z M 356.3 155.7 L 350.4 151.6 L 351.5 150.8 L 354.4 152.2 L 356.4 154.0 z M 255.1 153.8 L 238.6 147.6 L 238.5 147.3 L 246.3 145.4 L 255.3 153.6 z M 148.1 153.7 L 142.5 152.4 L 142.6 152.1 L 143.3 151.5 L 142.8 151.3 L 143.8 146.2 L 147.9 142.1 L 145.0 140.8 L 145.2 139.8 L 144.5 139.6 L 144.8 139.4 L 145.3 139.4 L 145.2 139.8 L 148.8 141.3 L 147.9 142.1 L 151.4 143.6 L 143.3 151.5 z M 278.8 153.5 L 279.5 152.3 L 280.1 152.8 z M 179.9 153.4 L 168.2 148.9 L 171.0 142.1 L 180.0 150.0 L 182.1 151.9 z M 429.3 152.6 L 429.5 151.8 L 428.8 149.3 L 427.4 148.6 L 428.3 147.5 L 428.8 149.3 L 430.0 150.0 L 429.5 151.8 L 429.7 152.4 z M 109.8 152.6 L 82.4 141.0 L 81.1 139.9 L 89.7 139.0 L 83.5 114.1 L 97.5 115.2 L 104.8 122.2 L 114.2 136.4 L 89.7 139.0 L 90.0 140.0 L 121.6 147.4 L 122.0 148.0 z M 290.0 152.5 L 287.4 151.8 L 288.6 150.2 L 286.8 149.0 L 290.0 147.1 L 290.0 148.1 L 288.6 150.2 L 290.0 151.1 z M 142.5 152.3 L 142.4 152.3 L 142.5 152.2 L 142.4 151.1 L 140.0 150.0 L 142.1 147.9 L 141.6 140.7 L 143.2 140.0 L 142.5 139.7 L 144.3 139.5 L 144.5 139.6 L 143.2 140.0 L 145.0 140.8 L 143.8 146.2 L 142.1 147.9 L 142.4 151.1 L 142.8 151.3 L 142.6 152.1 L 142.5 152.2 z M 349.6 152.2 L 349.8 151.2 L 350.4 151.6 z M 475.1 150.9 L 474.9 150.6 L 476.8 149.7 z M 134.0 150.3 L 128.9 145.4 L 139.7 141.4 L 140.6 139.9 L 141.5 139.8 L 141.6 140.7 L 139.7 141.4 z M 356.5 149.9 L 354.1 148.8 L 356.6 147.0 z M 369.3 148.4 L 369.0 148.3 L 367.6 146.2 z M 162.1 148.2 L 151.4 143.6 L 152.4 142.7 L 148.8 141.3 L 151.3 138.7 L 157.3 138.0 L 152.4 142.7 L 163.3 146.9 z M 367.6 148.0 L 366.5 147.7 L 366.4 147.6 L 367.4 146.3 z M 482.5 145.9 L 479.4 142.2 L 489.4 137.4 L 494.8 137.6 z M 269.5 145.8 L 266.6 144.0 L 272.4 139.1 L 272.4 139.1 L 272.4 139.1 L 280.0 132.6 L 262.3 132.2 L 254.5 126.8 L 278.1 124.1 L 275.4 122.5 L 280.1 123.8 L 278.1 124.1 L 285.3 128.1 L 280.0 132.6 L 289.6 132.8 L 284.3 136.2 L 272.4 139.1 L 276.0 141.6 z M 422.2 145.8 L 420.7 144.9 L 424.8 142.8 z M 356.6 144.9 L 342.2 140.9 L 341.4 140.2 L 341.2 136.0 L 355.3 140.2 L 356.7 141.2 z M 341.5 144.0 L 334.0 140.0 L 333.3 139.7 L 332.9 139.4 L 329.7 137.7 L 329.9 137.6 L 329.0 137.3 L 326.6 136.0 L 323.9 133.6 L 324.5 133.6 L 330.1 137.4 L 329.9 137.6 L 330.5 137.7 L 332.9 139.4 L 334.0 140.0 L 341.5 143.3 z M 360.8 143.9 L 356.7 141.2 L 356.8 140.6 L 362.7 142.4 z M 367.1 143.8 L 366.0 143.4 L 364.5 141.1 L 366.5 139.6 z M 365.6 143.3 L 362.7 142.4 L 364.2 141.3 z M 297.3 143.0 L 300.1 136.5 L 298.7 135.7 L 300.6 133.0 L 297.7 133.0 L 301.2 132.1 L 302.7 130.1 L 296.4 128.3 L 300.9 125.4 L 304.2 126.9 L 303.1 129.4 L 302.7 130.1 L 302.8 130.1 L 302.0 131.9 L 301.2 132.1 L 300.6 133.0 L 301.6 133.1 L 300.1 136.5 L 304.3 138.9 z M 426.3 141.0 L 424.8 135.9 L 414.8 135.7 L 422.5 129.3 L 406.1 124.6 L 404.1 111.8 L 412.9 105.3 L 415.8 106.0 L 422.7 129.1 L 422.5 129.3 L 422.8 129.4 L 424.8 135.9 L 430.5 136.1 z M 341.4 140.7 L 330.5 137.7 L 330.1 137.4 L 334.9 134.3 L 341.4 140.2 z M 240.5 140.1 L 234.5 138.6 L 233.5 136.5 L 232.8 133.2 z M 588.2 139.7 L 514.5 138.0 L 528.1 125.9 L 562.5 108.8 L 588.5 130.4 z M 169.9 139.7 L 169.7 139.5 L 171.4 136.4 L 173.1 136.2 L 173.7 135.5 L 173.4 136.1 L 173.1 136.2 z M 141.1 139.1 L 130.7 134.6 L 131.5 134.5 L 141.4 138.4 L 141.4 138.6 L 141.1 139.0 z M 141.4 138.8 L 141.4 138.6 L 141.5 138.4 L 141.4 138.4 L 141.0 133.5 L 144.9 133.1 L 141.5 138.4 L 141.8 138.5 z M 374.6 137.9 L 372.3 135.3 L 373.1 134.7 L 371.7 134.7 L 364.8 127.1 L 363.4 117.1 L 367.8 116.1 L 365.2 114.6 L 366.3 113.9 L 367.9 113.7 L 367.0 113.4 L 372.2 110.1 L 370.4 109.1 L 374.3 108.7 L 372.2 110.1 L 376.8 112.7 L 367.9 113.7 L 372.3 115.0 L 367.8 116.1 L 384.8 125.3 L 383.9 126.8 L 373.1 134.7 L 377.3 134.8 z M 504.4 137.8 L 503.0 137.7 L 507.0 135.9 L 508.1 135.1 L 507.8 135.6 L 507.0 135.9 L 505.0 137.5 z M 306.5 137.7 L 307.3 133.2 L 309.2 133.2 L 308.3 136.7 z M 499.3 137.7 L 494.8 137.6 L 507.9 128.8 L 510.1 127.7 L 509.6 127.6 L 515.1 123.9 L 518.6 118.2 L 529.3 114.1 L 549.7 98.1 L 551.3 99.4 L 529.8 113.9 L 529.3 114.1 L 528.1 115.1 L 515.1 123.9 L 513.8 126.0 L 510.1 127.7 L 511.6 128.1 z M 475.3 137.1 L 471.2 137.0 L 473.6 135.5 L 473.9 135.4 L 473.9 135.4 L 493.3 123.8 L 470.5 118.6 L 518.0 93.4 L 535.3 91.6 L 530.5 99.3 L 509.1 114.4 L 493.3 123.8 L 495.1 124.3 L 485.9 130.8 L 473.9 135.4 z M 165.9 137.0 L 163.0 135.2 L 161.6 133.9 L 162.8 132.7 L 167.3 131.0 L 172.7 134.0 L 171.4 136.4 z M 435.6 137.0 L 436.2 136.2 L 437.1 136.2 z M 469.9 137.0 L 461.7 136.8 L 453.1 127.8 L 463.2 122.4 L 473.9 135.4 L 473.6 135.5 z M 447.6 136.5 L 437.1 136.2 L 440.5 134.4 z M 309.9 135.8 L 309.4 133.2 L 314.1 133.3 z M 322.6 135.5 L 314.7 133.4 L 314.1 133.3 L 314.3 133.3 L 309.5 131.9 L 310.0 130.0 L 310.9 129.8 L 309.1 129.0 L 308.6 128.5 L 308.4 127.0 L 308.5 126.3 L 313.7 129.1 L 310.9 129.8 L 316.2 132.2 L 314.3 133.3 L 314.7 133.4 L 319.2 133.5 L 322.2 134.8 z M 289.2 135.0 L 290.0 133.6 L 290.0 132.8 L 290.4 132.8 L 290.0 133.6 L 290.0 134.8 z M 378.7 134.8 L 377.3 134.8 L 382.9 128.2 z M 174.0 134.7 L 172.7 134.0 L 174.9 130.1 L 175.9 130.1 z M 146.3 134.7 L 146.7 132.9 L 148.6 132.7 L 153.3 128.8 L 157.8 131.7 L 148.6 132.7 z M 365.8 134.6 L 360.4 134.4 L 357.1 129.0 L 357.4 119.7 L 357.8 119.5 L 364.8 127.1 z M 359.2 134.4 L 356.9 134.3 L 357.0 131.4 L 351.4 123.6 L 353.1 122.5 L 357.1 129.0 L 357.0 131.4 z M 346.1 134.1 L 341.2 134.0 L 341.1 130.7 L 340.8 130.5 L 341.1 130.3 L 341.1 130.7 z M 334.6 133.9 L 334.2 133.8 L 324.5 133.6 L 322.0 131.8 L 320.0 130.0 L 320.3 130.6 L 319.7 130.2 L 320.5 129.7 L 317.7 128.8 L 317.0 128.3 L 326.1 126.1 L 326.4 126.4 L 320.5 129.7 L 334.2 133.8 L 334.4 133.8 z M 295.0 133.6 L 293.6 132.9 L 297.7 133.0 z M 321.6 133.5 L 319.2 133.5 L 316.2 132.2 L 317.7 131.3 L 313.7 129.1 L 316.4 128.4 L 308.5 126.1 L 309.1 122.8 L 317.0 128.3 L 316.4 128.4 L 317.7 128.8 L 319.7 130.2 L 317.7 131.3 L 321.5 133.3 z M 161.0 133.4 L 159.0 131.6 L 164.6 131.0 L 162.8 132.7 z M 309.2 131.8 L 307.6 131.4 L 307.7 130.6 L 308.9 130.3 z M 158.3 131.7 L 158.7 131.3 L 159.0 131.6 z M 230.9 131.4 L 229.0 129.7 L 230.3 129.6 L 227.9 124.3 L 228.6 124.2 L 231.4 126.3 L 232.0 129.4 L 230.3 129.6 L 231.2 131.4 z M 217.2 131.1 L 213.5 131.0 L 222.8 124.8 L 223.5 124.7 L 223.3 124.5 L 226.4 122.4 L 227.4 123.2 L 227.9 124.3 L 223.5 124.7 L 229.0 129.7 z M 168.4 130.6 L 170.0 130.0 L 173.3 130.1 z M 193.6 130.6 L 178.5 130.2 L 179.2 129.4 L 188.2 128.5 L 182.2 126.2 L 182.7 125.7 L 192.2 128.1 L 188.2 128.5 L 191.0 129.6 L 190.0 130.0 L 191.2 129.7 z M 177.2 130.2 L 175.9 130.1 L 176.0 129.8 L 176.5 129.7 L 176.1 129.5 L 178.1 124.7 L 182.2 126.2 L 179.2 129.4 L 176.5 129.7 z M 165.6 130.1 L 161.9 128.1 L 166.7 123.3 L 170.2 125.6 z M 234.8 129.1 L 231.4 126.3 L 230.8 124.0 L 231.7 123.9 L 230.7 123.1 L 230.0 120.0 L 235.3 123.5 L 231.7 123.9 L 238.6 128.6 z M 308.6 128.8 L 308.1 128.6 L 308.2 128.0 L 305.9 125.5 L 306.0 125.3 L 305.6 125.2 L 305.1 124.7 L 305.2 124.6 L 306.2 125.1 L 306.0 125.3 L 307.3 125.7 L 308.2 126.2 L 308.4 127.0 L 308.2 128.0 L 308.6 128.5 z M 512.4 128.2 L 511.6 128.1 L 513.3 126.7 z M 193.9 127.9 L 185.6 122.4 L 201.6 104.9 L 197.3 101.0 L 197.8 100.5 L 202.6 103.8 L 201.6 104.9 L 217.0 118.8 L 195.5 127.7 z M 293.4 127.5 L 290.0 126.6 L 290.0 124.1 L 291.9 122.5 L 293.8 122.3 L 295.8 123.2 z M 199.7 127.3 L 220.0 121.5 L 223.3 124.5 L 222.8 124.8 z M 308.2 126.0 L 307.3 125.7 L 306.2 125.1 L 307.6 123.0 z M 305.0 125.0 L 302.6 124.3 L 303.6 123.7 L 304.9 124.4 L 305.1 124.7 z M 332.0 124.7 L 330.8 123.8 L 340.6 118.2 L 340.8 122.6 z M 178.1 124.5 L 176.8 124.2 L 173.1 122.8 L 178.4 117.7 L 174.7 115.3 L 192.9 97.1 L 193.3 97.4 L 186.1 110.3 L 178.4 117.7 L 180.7 119.2 L 180.0 120.0 L 178.4 124.0 z M 150.5 124.2 L 148.8 122.7 L 149.2 121.0 L 151.6 122.4 z M 296.3 122.4 L 295.3 122.1 L 296.5 121.9 L 297.4 120.4 L 299.6 121.6 L 296.5 121.9 z M 247.7 122.2 L 239.0 116.2 L 245.6 114.3 L 240.6 112.9 L 248.2 107.8 L 251.0 108.7 L 255.8 111.4 L 245.6 114.3 L 266.7 120.1 z M 307.4 121.7 L 307.0 121.4 L 307.4 121.2 L 307.3 120.7 L 308.4 120.6 L 309.6 119.8 L 310.4 115.5 L 313.1 115.2 L 310.1 119.4 L 309.6 119.8 L 309.5 120.3 L 309.4 120.5 L 308.4 120.6 L 307.4 121.2 z M 387.4 121.2 L 387.6 119.3 L 388.5 119.6 z M 168.8 121.2 L 164.3 119.5 L 171.6 113.3 L 174.7 115.3 z M 306.6 121.2 L 306.2 120.8 L 306.8 120.8 L 307.1 120.0 L 306.4 115.9 L 309.0 115.6 L 310.6 111.9 L 307.6 109.1 L 308.1 108.7 L 311.1 110.7 L 310.6 111.9 L 310.9 112.2 L 310.4 115.5 L 309.0 115.6 L 307.1 120.0 L 307.3 120.7 L 306.8 120.8 z M 162.8 120.7 L 162.5 120.6 L 155.7 116.2 L 155.6 116.2 L 155.6 116.1 L 155.7 116.2 L 164.3 119.5 z M 392.2 120.6 L 390.0 120.0 L 389.5 118.0 L 394.1 110.7 L 400.0 110.0 L 395.5 109.4 L 403.4 107.4 L 403.2 105.6 L 410.8 104.8 L 402.8 102.9 L 402.0 98.2 L 402.2 98.0 L 413.8 99.3 L 415.1 103.6 L 414.0 104.5 L 410.8 104.8 L 412.6 105.2 L 403.4 107.4 L 404.1 111.8 z M 290.0 120.6 L 289.1 120.2 L 283.1 118.4 L 284.6 118.2 L 289.1 120.2 L 290.0 120.5 z M 349.2 120.5 L 346.1 116.2 L 349.0 115.9 L 347.9 114.1 L 351.1 112.2 L 354.0 115.3 L 349.0 115.9 L 351.5 120.0 z M 390.0 120.0 L 388.5 119.6 L 388.7 119.3 z M 225.9 119.9 L 225.9 119.8 L 221.6 116.9 L 224.1 115.9 L 225.9 119.8 L 225.9 119.9 z M 181.0 119.4 L 180.7 119.2 L 181.6 118.2 z M 145.2 118.9 L 144.3 118.8 L 143.1 117.7 L 106.6 97.6 L 82.3 88.4 L 77.9 81.8 L 106.6 97.6 L 130.5 106.7 L 143.1 117.7 z M 357.0 118.7 L 354.0 115.3 L 357.5 114.9 L 357.6 110.8 L 356.9 110.5 L 357.5 110.5 L 357.6 110.5 L 357.6 110.8 L 358.5 111.0 L 362.9 113.4 L 363.0 114.3 L 357.5 114.9 L 357.4 118.6 z M 233.3 117.8 L 237.4 115.1 L 239.0 116.2 z M 291.9 117.5 L 290.0 116.4 L 290.0 109.6 L 293.5 112.0 L 297.9 116.8 z M 298.2 117.1 L 297.9 116.8 L 298.6 116.7 z M 300.1 116.6 L 299.7 116.3 L 300.2 115.4 L 305.6 110.8 L 306.4 115.9 z M 343.6 116.5 L 345.5 115.4 L 346.1 116.2 z M 363.2 115.9 L 363.0 114.3 L 364.2 114.1 L 365.2 114.6 z M 313.5 114.6 L 310.9 112.2 L 311.2 110.8 L 311.1 110.7 L 311.2 110.5 L 312.1 105.2 L 314.3 103.4 L 311.2 110.5 L 311.2 110.8 L 314.6 113.1 z M 150.6 114.3 L 130.5 106.7 L 100.9 80.8 L 76.9 80.3 L 74.0 76.0 L 72.5 69.9 L 100.7 68.4 L 103.5 68.8 L 122.4 81.2 L 101.2 80.8 L 100.0 80.0 L 100.9 80.8 L 101.2 80.8 L 150.9 113.1 z M 386.3 111.6 L 387.8 111.2 L 387.1 108.2 L 388.5 108.4 L 388.2 111.1 L 387.8 111.2 L 387.9 111.4 z M 544.5 111.5 L 554.8 102.3 L 551.3 99.4 L 566.1 89.4 L 569.4 89.4 L 554.8 102.3 L 558.1 105.1 z M 388.2 111.4 L 388.2 111.1 L 394.9 109.5 L 394.1 110.7 z M 353.4 110.9 L 355.0 110.0 L 356.9 110.5 z M 357.7 108.5 L 357.8 104.1 L 341.9 101.9 L 341.6 101.8 L 340.0 100.0 L 340.0 100.9 L 339.7 100.7 L 339.4 100.4 L 340.0 100.0 L 339.1 99.9 L 333.3 90.4 L 337.5 90.8 L 357.9 102.2 L 357.8 104.1 L 361.7 104.7 L 361.9 106.1 z M 386.8 107.4 L 385.4 101.5 L 388.3 99.6 L 389.2 99.8 L 388.6 107.2 z M 377.2 106.8 L 363.8 105.0 L 377.5 97.1 L 384.7 98.8 L 385.4 101.5 z M 247.0 106.4 L 216.2 88.9 L 216.8 88.3 L 252.6 104.1 z M 204.2 104.9 L 202.6 103.8 L 202.7 103.7 z M 362.7 104.8 L 361.7 104.7 L 361.6 104.2 z M 253.4 104.4 L 252.6 104.1 L 255.9 102.7 z M 415.3 104.3 L 415.1 103.6 L 420.0 100.0 L 413.8 99.3 L 409.9 86.5 L 413.9 86.5 L 428.1 101.5 L 417.2 104.1 z M 285.4 103.1 L 277.0 94.0 L 279.0 93.2 L 286.3 94.2 L 290.0 96.7 L 290.0 101.8 z M 528.1 103.1 L 530.5 99.3 L 541.6 91.3 L 541.1 90.9 L 542.4 90.8 L 541.6 91.3 L 544.2 93.5 z M 323.1 100.9 L 318.7 99.6 L 319.6 98.8 L 324.2 99.5 z M 339.2 100.5 L 337.7 99.7 L 339.1 99.9 L 339.4 100.4 z M 196.5 100.3 L 193.4 97.4 L 193.3 97.4 L 193.3 97.4 L 192.9 97.0 L 193.5 96.5 L 192.4 95.6 L 196.1 92.6 L 196.3 92.1 L 196.5 92.2 L 196.1 92.6 L 194.3 95.7 L 193.5 96.5 L 193.8 96.7 L 193.3 97.4 L 193.4 97.4 L 196.9 99.9 z M 295.4 100.3 L 290.0 96.7 L 290.0 94.7 L 286.3 94.2 L 282.6 91.7 L 282.9 91.5 L 289.6 92.5 L 290.0 92.9 L 290.0 94.7 L 292.3 95.0 L 297.4 99.7 z M 259.7 100.2 L 235.3 87.1 L 263.3 91.0 L 268.3 94.5 z M 215.9 98.0 L 209.6 96.2 L 213.2 92.2 L 210.6 86.7 L 211.2 86.1 L 216.2 88.9 L 213.2 92.2 z M 303.4 98.0 L 303.1 96.5 L 292.3 95.0 L 290.0 92.9 L 290.0 92.6 L 289.6 92.5 L 287.7 90.8 L 286.0 90.3 L 286.8 90.0 L 287.7 90.8 L 290.0 91.4 L 290.0 92.6 L 298.5 93.8 L 302.9 95.1 L 303.1 96.5 L 306.8 97.1 z M 443.0 97.9 L 433.9 86.9 L 413.9 86.5 L 411.8 84.3 L 424.8 75.9 L 433.9 86.9 L 470.5 87.6 L 467.4 92.0 z M 325.3 97.8 L 321.5 97.3 L 326.1 93.3 L 324.0 92.2 L 328.0 91.1 L 328.3 91.5 L 326.1 93.3 L 327.8 94.3 z M 308.3 96.7 L 302.9 95.1 L 302.8 94.5 L 298.5 93.8 L 290.0 91.4 L 290.0 88.6 L 300.1 84.5 L 301.1 84.5 L 302.8 94.5 L 311.2 95.7 L 311.1 95.8 z M 331.9 96.5 L 327.8 94.3 L 329.0 92.5 z M 311.4 95.8 L 311.2 95.7 L 314.9 89.0 L 315.2 87.4 L 315.7 87.7 L 314.9 89.0 L 313.9 95.0 z M 318.4 93.8 L 320.0 90.0 L 324.0 92.2 z M 362.1 93.6 L 360.1 93.3 L 360.1 93.1 L 358.2 92.7 L 358.4 85.5 L 348.3 85.3 L 358.5 82.5 L 358.4 85.5 L 359.0 85.5 L 360.1 93.1 z M 358.1 93.1 L 337.5 90.8 L 334.6 89.2 L 338.5 88.1 L 358.2 92.7 z M 467.6 92.0 L 470.0 90.0 L 468.5 91.7 z M 332.9 89.7 L 332.0 88.3 L 332.3 87.9 L 331.6 87.5 L 330.8 86.3 L 328.4 85.8 L 326.9 84.9 L 330.0 85.0 L 330.8 86.3 L 333.0 86.8 L 332.3 87.9 L 334.6 89.2 z M 184.1 89.0 L 182.9 88.1 L 177.4 86.4 L 175.3 85.0 L 176.5 83.0 L 175.4 82.1 L 176.5 82.2 L 176.9 82.5 L 176.5 83.0 L 182.9 88.1 L 183.1 88.2 z M 545.0 89.0 L 538.6 88.9 L 537.5 88.0 L 541.3 82.0 L 549.7 85.6 z M 537.0 88.8 L 527.0 88.7 L 534.0 85.0 L 525.6 78.0 L 529.6 77.0 L 540.4 81.6 L 534.0 85.0 L 537.5 88.0 z M 259.0 88.0 L 228.5 83.5 L 227.8 83.1 L 252.6 83.6 z M 484.6 87.9 L 470.5 87.6 L 490.0 60.0 L 518.8 72.3 L 525.6 78.0 z M 408.5 86.5 L 400.2 86.3 L 397.9 71.4 L 399.1 71.0 L 408.2 80.6 L 409.7 85.7 z M 210.5 86.4 L 210.1 85.4 L 209.1 84.9 L 210.0 85.3 L 210.1 85.4 L 211.0 86.0 z M 409.8 86.0 L 409.7 85.7 L 410.2 85.3 z M 381.5 86.0 L 359.0 85.5 L 358.6 82.4 L 379.2 76.7 L 373.6 54.4 L 382.8 54.0 L 397.6 69.5 L 397.9 71.4 L 379.2 76.7 z M 334.3 85.1 L 330.0 85.0 L 325.4 77.5 L 327.2 73.2 L 348.9 64.2 L 354.9 55.7 L 355.7 61.4 L 348.9 64.2 z M 205.0 85.0 L 206.3 83.7 L 204.4 82.8 L 205.8 83.0 L 206.6 83.5 L 206.3 83.7 L 206.5 83.7 z M 310.2 84.6 L 301.1 84.5 L 301.0 84.1 L 305.6 82.2 L 300.4 79.3 L 308.1 81.1 L 305.6 82.2 z M 213.4 84.1 L 212.7 84.0 L 213.8 82.8 L 214.6 82.9 z M 206.8 83.2 L 205.8 83.0 L 205.2 82.7 L 204.1 82.7 L 202.1 81.8 L 202.5 81.1 L 198.9 79.1 L 194.5 78.4 L 182.7 73.2 L 184.2 70.8 L 198.9 79.1 L 203.3 79.7 L 202.5 81.1 L 205.2 82.7 L 207.3 82.7 z M 323.1 82.8 L 321.3 81.8 L 320.0 80.0 L 319.5 80.8 L 316.6 79.3 L 317.0 77.5 L 323.7 74.7 L 325.4 77.5 z M 177.1 82.2 L 176.5 82.2 L 172.3 78.4 L 170.3 78.1 L 165.2 74.1 L 168.1 74.5 L 172.3 78.4 L 178.9 79.3 z M 162.4 81.9 L 157.5 81.8 L 157.8 80.5 L 132.5 72.8 L 158.6 76.5 L 157.8 80.5 z M 208.3 81.7 L 207.8 80.4 L 203.3 79.7 L 205.6 75.7 L 202.9 69.7 L 207.5 72.2 L 205.6 75.7 L 207.8 80.4 L 209.3 80.7 z M 215.9 81.6 L 215.0 81.5 L 218.2 78.0 L 215.2 76.4 L 220.8 71.7 L 218.9 71.1 L 225.4 64.6 L 221.9 62.2 L 225.4 62.0 L 227.5 62.5 L 225.4 64.6 L 227.4 66.0 L 220.8 71.7 L 223.3 72.4 L 218.2 78.0 L 219.2 78.5 z M 223.6 80.8 L 219.2 78.5 L 225.0 72.9 L 229.7 74.2 z M 300.1 79.2 L 295.3 76.5 L 299.2 73.8 L 298.4 69.1 L 302.7 71.5 L 299.2 73.8 z M 245.8 78.8 L 229.7 74.2 L 233.3 70.2 z M 58.6 77.8 L 42.4 62.3 L 38.0 59.9 L 35.4 47.1 L 96.0 35.8 L 73.9 60.6 L 70.0 60.0 L 71.0 63.9 L 70.7 64.3 L 40.0 60.0 L 42.4 62.3 L 62.5 73.4 z M 180.7 76.4 L 168.1 74.5 L 158.1 65.5 L 164.4 65.2 L 151.5 59.5 L 139.3 48.5 L 139.5 48.4 L 150.3 51.5 L 173.5 64.7 L 164.4 65.2 L 182.7 73.2 z M 159.2 73.9 L 157.9 73.0 L 120.1 67.4 L 147.8 66.0 L 157.9 73.0 L 159.3 73.2 z M 109.2 65.8 L 95.9 63.8 L 90.0 60.0 z M 234.2 64.0 L 231.4 63.4 L 233.1 61.6 L 236.9 61.4 L 237.0 61.3 L 237.1 61.4 L 236.9 61.4 z M 192.9 63.7 L 190.0 62.9 L 189.4 62.6 L 194.3 54.8 L 196.2 55.3 L 199.9 63.3 z M 189.4 62.7 L 150.3 51.5 L 143.6 47.7 L 155.2 45.8 L 160.4 47.0 L 189.4 62.6 z M 212.9 62.7 L 214.6 59.5 L 196.2 55.3 L 195.3 53.3 L 199.5 46.6 L 190.0 40.0 L 189.3 40.1 L 183.0 26.5 L 172.7 21.4 L 180.0 20.0 L 183.0 26.5 L 205.2 37.6 L 199.5 46.6 L 215.6 57.8 L 214.6 59.5 L 219.8 60.7 L 221.9 62.2 z M 232.6 61.7 L 234.6 60.0 L 233.1 61.6 z M 241.5 61.2 L 244.2 58.2 L 242.3 56.2 L 242.4 56.2 L 244.9 57.5 L 244.2 58.2 L 246.7 60.9 z M 251.4 60.7 L 244.9 57.5 L 247.9 54.2 L 246.2 52.5 L 248.0 50.7 L 246.5 49.9 L 253.3 44.1 L 254.4 44.6 L 248.0 50.7 L 250.1 51.9 L 247.9 54.2 L 254.8 60.5 z M 359.1 60.0 L 359.3 55.2 L 372.5 54.5 L 373.5 54.1 L 370.2 40.7 L 380.3 51.3 L 373.5 54.1 L 373.6 54.4 L 372.5 54.5 z M 234.7 59.8 L 232.0 58.0 L 236.7 53.3 L 239.4 54.7 z M 296.6 58.4 L 291.8 30.2 L 296.7 30.8 L 313.1 57.5 z M 334.4 56.4 L 342.9 36.6 L 352.5 37.8 L 354.9 55.4 z M 240.2 53.8 L 238.3 51.7 L 241.6 48.4 L 243.5 50.1 z M 359.4 49.3 L 359.7 38.7 L 366.3 39.5 z M 238.7 45.7 L 226.7 39.1 L 209.2 20.0 L 210.9 20.0 L 211.0 20.1 L 210.0 20.0 L 212.2 21.2 z M 255.9 45.5 L 254.4 44.6 L 266.7 32.8 L 270.0 30.0 z M 369.5 39.9 L 366.3 39.5 L 367.5 37.8 z M 139.0 35.5 L 128.2 29.7 L 164.0 23.0 L 170.0 20.0 L 172.7 21.4 L 164.0 23.0 z" style="fill:#99ff99; fill-opacity:1.0; fill-rule:evenodd; stroke:#009900; stroke-opacity:0.3; stroke-width:0.8;"/>

</svg>
