{
    "asset" : {
        "generator" : "Khronos glTF Blender I/O v3.2.43",
        "version" : "2.0"
    },
    "scene" : 0,
    "scenes" : [
        {
            "name" : "Scene",
            "nodes" : [
                0,
                1
            ]
        }
    ],
    "nodes" : [
        {
            "mesh" : 0,
            "name" : "Shaft"
        },
        {
            "mesh" : 1,
            "name" : "Pitch"
        }
    ],
    "meshes" : [
        {
            "name" : "Shaft",
            "primitives" : [
                {
                    "attributes" : {
                        "POSITION" : 0,
                        "NORMAL" : 1,
                        "TEXCOORD_0" : 2
                    },
                    "indices" : 3
                }
            ]
        },
        {
            "name" : "Pitch",
            "primitives" : [
                {
                    "attributes" : {
                        "POSITION" : 4,
                        "NORMAL" : 5,
                        "TEXCOORD_0" : 6
                    },
                    "indices" : 7
                }
            ]
        }
    ],
    "accessors" : [
        {
            "bufferView" : 0,
            "componentType" : 5126,
            "count" : 98,
            "max" : [
                0.043709270656108856,
                0.043709270656108856,
                1.3791923522949219
            ],
            "min" : [
                -0.043709270656108856,
                -0.043709270656108856,
                -0.003455519676208496
            ],
            "type" : "VEC3"
        },
        {
            "bufferView" : 1,
            "componentType" : 5126,
            "count" : 98,
            "type" : "VEC3"
        },
        {
            "bufferView" : 2,
            "componentType" : 5126,
            "count" : 98,
            "type" : "VEC2"
        },
        {
            "bufferView" : 3,
            "componentType" : 5123,
            "count" : 282,
            "type" : "SCALAR"
        },
        {
            "bufferView" : 4,
            "componentType" : 5126,
            "count" : 205,
            "max" : [
                0.07540418207645416,
                0.07540417462587357,
                1.7009742259979248
            ],
            "min" : [
                -0.07540417462587357,
                -0.07540417462587357,
                1.3106725215911865
            ],
            "type" : "VEC3"
        },
        {
            "bufferView" : 5,
            "componentType" : 5126,
            "count" : 205,
            "type" : "VEC3"
        },
        {
            "bufferView" : 6,
            "componentType" : 5126,
            "count" : 205,
            "type" : "VEC2"
        },
        {
            "bufferView" : 7,
            "componentType" : 5123,
            "count" : 960,
            "type" : "SCALAR"
        }
    ],
    "bufferViews" : [
        {
            "buffer" : 0,
            "byteLength" : 1176,
            "byteOffset" : 0
        },
        {
            "buffer" : 0,
            "byteLength" : 1176,
            "byteOffset" : 1176
        },
        {
            "buffer" : 0,
            "byteLength" : 784,
            "byteOffset" : 2352
        },
        {
            "buffer" : 0,
            "byteLength" : 564,
            "byteOffset" : 3136
        },
        {
            "buffer" : 0,
            "byteLength" : 2460,
            "byteOffset" : 3700
        },
        {
            "buffer" : 0,
            "byteLength" : 2460,
            "byteOffset" : 6160
        },
        {
            "buffer" : 0,
            "byteLength" : 1640,
            "byteOffset" : 8620
        },
        {
            "buffer" : 0,
            "byteLength" : 1920,
            "byteOffset" : 10260
        }
    ],
    "buffers" : [
        {
            "byteLength" : 12180,
            "uri" : "data:application/octet-stream;base64,"
        }
    ]
}
