{
	"asset":{
		"generator":"Khronos glTF Blender I/O v3.6.27",
		"version":"2.0"
	},
	"scene":0,
	"scenes":[
		{
			"name":"Scene",
			"nodes":[
				16,
				17
			]
		}
	],
	"nodes":[
		{
			"name":"Left Forearm",
			"rotation":[
				0,
				1.7763568394002505e-15,
				0,
				1
			],
			"translation":[
				4.235164736271502e-22,
				0.33000004291534424,
				1.1920928955078125e-07
			]
		},
		{
			"children":[
				0
			],
			"name":"Left Arm",
			"rotation":[
				0,
				2.1855692367012125e-08,
				0,
				1
			],
			"translation":[
				0,
				0.2200000137090683,
				0
			]
		},
		{
			"children":[
				1
			],
			"name":"Left Shoulder",
			"rotation":[
				-0.5,
				-0.5,
				-0.5,
				0.5
			],
			"translation":[
				0,
				0.75,
				0
			]
		},
		{
			"name":"Right Forearm",
			"rotation":[
				0,
				-1.7763568394002505e-15,
				0,
				1
			],
			"translation":[
				-4.235164736271502e-22,
				0.33000004291534424,
				1.1920928955078125e-07
			]
		},
		{
			"children":[
				3
			],
			"name":"Right Arm",
			"rotation":[
				0,
				-2.1855692367012125e-08,
				0,
				1
			],
			"translation":[
				0,
				0.2200000137090683,
				0
			]
		},
		{
			"children":[
				4
			],
			"name":"Right Shoulder",
			"rotation":[
				-0.5,
				0.5,
				0.5,
				0.5
			],
			"translation":[
				0,
				0.75,
				0
			]
		},
		{
			"name":"Head",
			"translation":[
				0,
				0.04999995231628418,
				0
			]
		},
		{
			"children":[
				6
			],
			"name":"Neck",
			"translation":[
				0,
				0.75,
				0
			]
		},
		{
			"children":[
				2,
				5,
				7
			],
			"name":"Torso",
			"translation":[
				0,
				0.75,
				0
			]
		},
		{
			"name":"Left Lower Leg",
			"rotation":[
				-1.4901161193847656e-08,
				1.4901161193847656e-08,
				-1.4901161193847656e-08,
				1
			],
			"translation":[
				2.980230506821613e-09,
				0.29999998211860657,
				1.5543122344752192e-15
			]
		},
		{
			"children":[
				9
			],
			"name":"Left Leg",
			"rotation":[
				-0.2763931453227997,
				-0.4472135305404663,
				0.44721361994743347,
				0.7236068844795227
			],
			"translation":[
				0,
				0.11180339753627777,
				-1.862645149230957e-08
			]
		},
		{
			"children":[
				10
			],
			"name":"Left Hip",
			"rotation":[
				-0.7236068844795227,
				-0.4472135901451111,
				-0.4472135901451111,
				0.27639317512512207
			],
			"translation":[
				0,
				0.75,
				0
			]
		},
		{
			"name":"Right Lower Leg",
			"rotation":[
				-1.4901161193847656e-08,
				-1.4901161193847656e-08,
				1.4901161193847656e-08,
				1
			],
			"translation":[
				-2.980230506821613e-09,
				0.29999998211860657,
				1.5543122344752192e-15
			]
		},
		{
			"children":[
				12
			],
			"name":"Right Leg",
			"rotation":[
				-0.2763931453227997,
				0.4472135305404663,
				-0.44721361994743347,
				0.7236068844795227
			],
			"translation":[
				0,
				0.11180339753627777,
				-1.862645149230957e-08
			]
		},
		{
			"children":[
				13
			],
			"name":"Right Hip",
			"rotation":[
				-0.7236068844795227,
				0.4472135901451111,
				0.4472135901451111,
				0.27639317512512207
			],
			"translation":[
				0,
				0.75,
				0
			]
		},
		{
			"children":[
				8,
				11,
				14
			],
			"name":"Ground",
			"rotation":[
				0.7071067690849304,
				0,
				0,
				0.7071067690849304
			]
		},
		{
			"children":[
				15
			],
			"name":"Skeleton"
		},
		{
			"mesh":0,
			"name":"Body",
			"skin":0
		}
	],
	"animations":[
		{
			"channels":[
				{
					"sampler":0,
					"target":{
						"node":4,
						"path":"rotation"
					}
				},
				{
					"sampler":1,
					"target":{
						"node":1,
						"path":"rotation"
					}
				},
				{
					"sampler":2,
					"target":{
						"node":8,
						"path":"rotation"
					}
				},
				{
					"sampler":3,
					"target":{
						"node":0,
						"path":"rotation"
					}
				},
				{
					"sampler":4,
					"target":{
						"node":3,
						"path":"rotation"
					}
				},
				{
					"sampler":5,
					"target":{
						"node":10,
						"path":"rotation"
					}
				},
				{
					"sampler":6,
					"target":{
						"node":9,
						"path":"rotation"
					}
				},
				{
					"sampler":7,
					"target":{
						"node":13,
						"path":"rotation"
					}
				},
				{
					"sampler":8,
					"target":{
						"node":12,
						"path":"rotation"
					}
				},
				{
					"sampler":9,
					"target":{
						"node":15,
						"path":"translation"
					}
				}
			],
			"name":"Idle",
			"samplers":[
				{
					"input":6,
					"interpolation":"CUBICSPLINE",
					"output":7
				},
				{
					"input":6,
					"interpolation":"CUBICSPLINE",
					"output":8
				},
				{
					"input":6,
					"interpolation":"CUBICSPLINE",
					"output":9
				},
				{
					"input":6,
					"interpolation":"CUBICSPLINE",
					"output":10
				},
				{
					"input":6,
					"interpolation":"CUBICSPLINE",
					"output":11
				},
				{
					"input":6,
					"interpolation":"CUBICSPLINE",
					"output":12
				},
				{
					"input":6,
					"interpolation":"CUBICSPLINE",
					"output":13
				},
				{
					"input":6,
					"interpolation":"CUBICSPLINE",
					"output":14
				},
				{
					"input":6,
					"interpolation":"CUBICSPLINE",
					"output":15
				},
				{
					"input":6,
					"interpolation":"CUBICSPLINE",
					"output":16
				}
			]
		},
		{
			"channels":[
				{
					"sampler":0,
					"target":{
						"node":8,
						"path":"rotation"
					}
				},
				{
					"sampler":1,
					"target":{
						"node":1,
						"path":"rotation"
					}
				},
				{
					"sampler":2,
					"target":{
						"node":0,
						"path":"rotation"
					}
				},
				{
					"sampler":3,
					"target":{
						"node":4,
						"path":"rotation"
					}
				},
				{
					"sampler":4,
					"target":{
						"node":3,
						"path":"rotation"
					}
				},
				{
					"sampler":5,
					"target":{
						"node":10,
						"path":"rotation"
					}
				},
				{
					"sampler":6,
					"target":{
						"node":9,
						"path":"rotation"
					}
				},
				{
					"sampler":7,
					"target":{
						"node":13,
						"path":"rotation"
					}
				},
				{
					"sampler":8,
					"target":{
						"node":12,
						"path":"rotation"
					}
				},
				{
					"sampler":9,
					"target":{
						"node":15,
						"path":"translation"
					}
				}
			],
			"name":"Run",
			"samplers":[
				{
					"input":17,
					"interpolation":"CUBICSPLINE",
					"output":18
				},
				{
					"input":17,
					"interpolation":"CUBICSPLINE",
					"output":19
				},
				{
					"input":17,
					"interpolation":"CUBICSPLINE",
					"output":20
				},
				{
					"input":17,
					"interpolation":"CUBICSPLINE",
					"output":21
				},
				{
					"input":17,
					"interpolation":"CUBICSPLINE",
					"output":22
				},
				{
					"input":17,
					"interpolation":"CUBICSPLINE",
					"output":23
				},
				{
					"input":17,
					"interpolation":"CUBICSPLINE",
					"output":24
				},
				{
					"input":17,
					"interpolation":"CUBICSPLINE",
					"output":25
				},
				{
					"input":17,
					"interpolation":"CUBICSPLINE",
					"output":26
				},
				{
					"input":17,
					"interpolation":"CUBICSPLINE",
					"output":27
				}
			]
		},
		{
			"channels":[
				{
					"sampler":0,
					"target":{
						"node":8,
						"path":"rotation"
					}
				},
				{
					"sampler":1,
					"target":{
						"node":1,
						"path":"rotation"
					}
				},
				{
					"sampler":2,
					"target":{
						"node":0,
						"path":"rotation"
					}
				},
				{
					"sampler":3,
					"target":{
						"node":4,
						"path":"rotation"
					}
				},
				{
					"sampler":4,
					"target":{
						"node":3,
						"path":"rotation"
					}
				},
				{
					"sampler":5,
					"target":{
						"node":10,
						"path":"rotation"
					}
				},
				{
					"sampler":6,
					"target":{
						"node":9,
						"path":"rotation"
					}
				},
				{
					"sampler":7,
					"target":{
						"node":13,
						"path":"rotation"
					}
				},
				{
					"sampler":8,
					"target":{
						"node":12,
						"path":"rotation"
					}
				},
				{
					"sampler":9,
					"target":{
						"node":15,
						"path":"translation"
					}
				}
			],
			"name":"Walk",
			"samplers":[
				{
					"input":17,
					"interpolation":"CUBICSPLINE",
					"output":28
				},
				{
					"input":17,
					"interpolation":"CUBICSPLINE",
					"output":29
				},
				{
					"input":17,
					"interpolation":"CUBICSPLINE",
					"output":30
				},
				{
					"input":17,
					"interpolation":"CUBICSPLINE",
					"output":31
				},
				{
					"input":17,
					"interpolation":"CUBICSPLINE",
					"output":32
				},
				{
					"input":17,
					"interpolation":"CUBICSPLINE",
					"output":33
				},
				{
					"input":17,
					"interpolation":"CUBICSPLINE",
					"output":34
				},
				{
					"input":17,
					"interpolation":"CUBICSPLINE",
					"output":35
				},
				{
					"input":17,
					"interpolation":"CUBICSPLINE",
					"output":36
				},
				{
					"input":17,
					"interpolation":"CUBICSPLINE",
					"output":37
				}
			]
		}
	],
	"meshes":[
		{
			"name":"Body",
			"primitives":[
				{
					"attributes":{
						"POSITION":0,
						"NORMAL":1,
						"JOINTS_0":2,
						"WEIGHTS_0":3
					},
					"indices":4
				}
			]
		}
	],
	"skins":[
		{
			"inverseBindMatrices":5,
			"joints":[
				15,
				8,
				2,
				1,
				0,
				5,
				4,
				3,
				7,
				6,
				11,
				10,
				9,
				14,
				13,
				12
			],
			"name":"Skeleton"
		}
	],
	"accessors":[
		{
			"bufferView":0,
			"componentType":5126,
			"count":3828,
			"max":[
				1.0264008045196533,
				0.17184334993362427,
				1.8921706676483154
			],
			"min":[
				-1.0264008045196533,
				-0.17184334993362427,
				-0.01929473876953125
			],
			"type":"VEC3"
		},
		{
			"bufferView":1,
			"componentType":5126,
			"count":3828,
			"type":"VEC3"
		},
		{
			"bufferView":2,
			"componentType":5121,
			"count":3828,
			"type":"VEC4"
		},
		{
			"bufferView":3,
			"componentType":5126,
			"count":3828,
			"type":"VEC4"
		},
		{
			"bufferView":4,
			"componentType":5123,
			"count":22956,
			"type":"SCALAR"
		},
		{
			"bufferView":5,
			"componentType":5126,
			"count":16,
			"type":"MAT4"
		},
		{
			"bufferView":6,
			"componentType":5126,
			"count":3,
			"max":[
				2
			],
			"min":[
				0
			],
			"type":"SCALAR"
		},
		{
			"bufferView":7,
			"componentType":5126,
			"count":9,
			"type":"VEC4"
		},
		{
			"bufferView":8,
			"componentType":5126,
			"count":9,
			"type":"VEC4"
		},
		{
			"bufferView":9,
			"componentType":5126,
			"count":9,
			"type":"VEC4"
		},
		{
			"bufferView":10,
			"componentType":5126,
			"count":9,
			"type":"VEC4"
		},
		{
			"bufferView":11,
			"componentType":5126,
			"count":9,
			"type":"VEC4"
		},
		{
			"bufferView":12,
			"componentType":5126,
			"count":9,
			"type":"VEC4"
		},
		{
			"bufferView":13,
			"componentType":5126,
			"count":9,
			"type":"VEC4"
		},
		{
			"bufferView":14,
			"componentType":5126,
			"count":9,
			"type":"VEC4"
		},
		{
			"bufferView":15,
			"componentType":5126,
			"count":9,
			"type":"VEC4"
		},
		{
			"bufferView":16,
			"componentType":5126,
			"count":9,
			"type":"VEC3"
		},
		{
			"bufferView":17,
			"componentType":5126,
			"count":5,
			"max":[
				2
			],
			"min":[
				0
			],
			"type":"SCALAR"
		},
		{
			"bufferView":18,
			"componentType":5126,
			"count":15,
			"type":"VEC4"
		},
		{
			"bufferView":19,
			"componentType":5126,
			"count":15,
			"type":"VEC4"
		},
		{
			"bufferView":20,
			"componentType":5126,
			"count":15,
			"type":"VEC4"
		},
		{
			"bufferView":21,
			"componentType":5126,
			"count":15,
			"type":"VEC4"
		},
		{
			"bufferView":22,
			"componentType":5126,
			"count":15,
			"type":"VEC4"
		},
		{
			"bufferView":23,
			"componentType":5126,
			"count":15,
			"type":"VEC4"
		},
		{
			"bufferView":24,
			"componentType":5126,
			"count":15,
			"type":"VEC4"
		},
		{
			"bufferView":25,
			"componentType":5126,
			"count":15,
			"type":"VEC4"
		},
		{
			"bufferView":26,
			"componentType":5126,
			"count":15,
			"type":"VEC4"
		},
		{
			"bufferView":27,
			"componentType":5126,
			"count":15,
			"type":"VEC3"
		},
		{
			"bufferView":28,
			"componentType":5126,
			"count":15,
			"type":"VEC4"
		},
		{
			"bufferView":29,
			"componentType":5126,
			"count":15,
			"type":"VEC4"
		},
		{
			"bufferView":30,
			"componentType":5126,
			"count":15,
			"type":"VEC4"
		},
		{
			"bufferView":31,
			"componentType":5126,
			"count":15,
			"type":"VEC4"
		},
		{
			"bufferView":32,
			"componentType":5126,
			"count":15,
			"type":"VEC4"
		},
		{
			"bufferView":33,
			"componentType":5126,
			"count":15,
			"type":"VEC4"
		},
		{
			"bufferView":34,
			"componentType":5126,
			"count":15,
			"type":"VEC4"
		},
		{
			"bufferView":35,
			"componentType":5126,
			"count":15,
			"type":"VEC4"
		},
		{
			"bufferView":36,
			"componentType":5126,
			"count":15,
			"type":"VEC4"
		},
		{
			"bufferView":37,
			"componentType":5126,
			"count":15,
			"type":"VEC3"
		}
	],
	"bufferViews":[
		{
			"buffer":0,
			"byteLength":45936,
			"byteOffset":0,
			"target":34962
		},
		{
			"buffer":0,
			"byteLength":45936,
			"byteOffset":45936,
			"target":34962
		},
		{
			"buffer":0,
			"byteLength":15312,
			"byteOffset":91872,
			"target":34962
		},
		{
			"buffer":0,
			"byteLength":61248,
			"byteOffset":107184,
			"target":34962
		},
		{
			"buffer":0,
			"byteLength":45912,
			"byteOffset":168432,
			"target":34963
		},
		{
			"buffer":0,
			"byteLength":1024,
			"byteOffset":214344
		},
		{
			"buffer":0,
			"byteLength":12,
			"byteOffset":215368
		},
		{
			"buffer":0,
			"byteLength":144,
			"byteOffset":215380
		},
		{
			"buffer":0,
			"byteLength":144,
			"byteOffset":215524
		},
		{
			"buffer":0,
			"byteLength":144,
			"byteOffset":215668
		},
		{
			"buffer":0,
			"byteLength":144,
			"byteOffset":215812
		},
		{
			"buffer":0,
			"byteLength":144,
			"byteOffset":215956
		},
		{
			"buffer":0,
			"byteLength":144,
			"byteOffset":216100
		},
		{
			"buffer":0,
			"byteLength":144,
			"byteOffset":216244
		},
		{
			"buffer":0,
			"byteLength":144,
			"byteOffset":216388
		},
		{
			"buffer":0,
			"byteLength":144,
			"byteOffset":216532
		},
		{
			"buffer":0,
			"byteLength":108,
			"byteOffset":216676
		},
		{
			"buffer":0,
			"byteLength":20,
			"byteOffset":216784
		},
		{
			"buffer":0,
			"byteLength":240,
			"byteOffset":216804
		},
		{
			"buffer":0,
			"byteLength":240,
			"byteOffset":217044
		},
		{
			"buffer":0,
			"byteLength":240,
			"byteOffset":217284
		},
		{
			"buffer":0,
			"byteLength":240,
			"byteOffset":217524
		},
		{
			"buffer":0,
			"byteLength":240,
			"byteOffset":217764
		},
		{
			"buffer":0,
			"byteLength":240,
			"byteOffset":218004
		},
		{
			"buffer":0,
			"byteLength":240,
			"byteOffset":218244
		},
		{
			"buffer":0,
			"byteLength":240,
			"byteOffset":218484
		},
		{
			"buffer":0,
			"byteLength":240,
			"byteOffset":218724
		},
		{
			"buffer":0,
			"byteLength":180,
			"byteOffset":218964
		},
		{
			"buffer":0,
			"byteLength":240,
			"byteOffset":219144
		},
		{
			"buffer":0,
			"byteLength":240,
			"byteOffset":219384
		},
		{
			"buffer":0,
			"byteLength":240,
			"byteOffset":219624
		},
		{
			"buffer":0,
			"byteLength":240,
			"byteOffset":219864
		},
		{
			"buffer":0,
			"byteLength":240,
			"byteOffset":220104
		},
		{
			"buffer":0,
			"byteLength":240,
			"byteOffset":220344
		},
		{
			"buffer":0,
			"byteLength":240,
			"byteOffset":220584
		},
		{
			"buffer":0,
			"byteLength":240,
			"byteOffset":220824
		},
		{
			"buffer":0,
			"byteLength":240,
			"byteOffset":221064
		},
		{
			"buffer":0,
			"byteLength":180,
			"byteOffset":221304
		}
	],
	"buffers":[
		{
			"byteLength":221484,
			"uri":"data:application/octet-stream;base64,"
		}
	]
}
